<svg width="84" height="40" viewBox="0 0 84 40" fill="none" xmlns="http://www.w3.org/2000/svg">
<mask id="path-1-outside-1_6706_3060" maskUnits="userSpaceOnUse" x="0" y="0" width="84" height="40" fill="black">
<rect fill="white" width="84" height="40"/>
<path d="M19.9828 11.8773L19.129 8.37459C19.326 8.44027 19.5449 8.48405 19.7638 8.48405C20.5957 8.48405 21.2963 8.11189 21.2963 7.17054C21.2963 6.29486 20.7271 6.11973 19.9609 6.11973C19.5668 6.11973 19.1728 6.18541 18.8006 6.22919C18.6036 9.35973 18.4503 12.2932 18.4503 17H13.1306C13.3933 14.8108 13.7873 7.69595 13.7873 2.39811H22.4784C24.8428 2.39811 26.7473 3.95243 26.7473 6.84216C26.7473 10.1259 24.3173 11.9868 21.1868 11.9868C20.7709 11.9868 20.3549 11.943 19.9828 11.8773ZM28.5346 6.05405H33.9638C33.5916 9.55676 33.5916 13.3441 33.5697 17H27.9216C28.3376 13.8038 28.4689 10.7608 28.5346 6.05405ZM28.7535 2.11351H33.9419C33.8981 2.81405 33.8106 3.90865 33.7668 5.09081H28.6879C28.7535 4.08378 28.7535 3.09865 28.7535 2.11351ZM45.313 12.8624L44.6782 16.8468C43.5398 17.1314 42.3795 17.2846 41.2193 17.2846C36.206 17.2846 35.4398 13.8038 35.4398 11.7897C35.4398 8.19946 37.2568 5.76946 41.7447 5.76946C42.9706 5.76946 44.1747 5.90081 45.3568 6.18541L45.5976 10.1478C44.7438 9.84135 43.8463 9.60054 42.9268 9.60054C41.6133 9.60054 40.7376 10.2354 40.7376 11.5927C40.7376 12.8405 41.4601 13.4535 42.686 13.4535C43.5179 13.4535 44.5249 13.1908 45.313 12.8624ZM56.071 9.77568H53.838C53.7724 10.4981 53.7067 11.2205 53.7067 12.0524C53.7067 12.8624 53.838 13.4535 54.7794 13.4535C55.261 13.4535 55.7208 13.3003 56.2024 13.1689L55.5018 16.8905C54.451 17.1532 53.3783 17.2846 52.2618 17.2846C50.1164 17.2846 48.4089 16.7592 48.4089 14.2854C48.4089 12.8186 48.6497 11.33 48.6935 9.77568H46.9202L47.0735 6.05405H48.9999L49.1532 4.10567L54.1008 3.01108L53.9694 6.05405H56.1805L56.071 9.77568ZM64.3366 5.76946C67.8393 5.76946 71.0355 7.58649 71.0355 11.4395C71.0355 15.4676 67.8174 17.2846 64.1396 17.2846C59.3452 17.2846 57.3531 14.5043 57.3531 11.7678C57.3531 7.80541 60.6806 5.76946 64.3366 5.76946ZM64.3147 9.49108C63.1106 9.49108 62.6509 10.6295 62.6509 11.7241C62.6509 12.6873 63.0887 13.563 64.0958 13.563C65.2779 13.563 65.7377 12.3151 65.7377 11.2643C65.7377 10.323 65.2779 9.49108 64.3147 9.49108ZM9.5499 31.8773L8.69611 28.3746C8.89314 28.4403 9.11206 28.4841 9.33098 28.4841C10.1629 28.4841 10.8634 28.1119 10.8634 27.1705C10.8634 26.2949 10.2942 26.1197 9.52801 26.1197C9.13395 26.1197 8.7399 26.1854 8.36774 26.2292C8.17071 29.3597 8.01747 32.2932 8.01747 37H2.69774C2.96044 34.8108 3.35449 27.6959 3.35449 22.3981H12.0456C14.4099 22.3981 16.3145 23.9524 16.3145 26.8422C16.3145 30.1259 13.8845 31.9868 10.754 31.9868C10.338 31.9868 9.92206 31.943 9.5499 31.8773ZM18.2988 22.3981H23.728C23.5747 24.04 23.3996 25.66 23.3996 27.2143C23.9688 26.667 25.2166 25.7695 27.362 25.7695C30.3831 25.7695 31.412 27.1924 31.412 28.9876C31.412 29.8632 31.1055 33.7162 31.0837 37H25.742C25.8515 35.3581 26.0266 33.7162 26.0266 32.0743C26.0266 31.2862 26.0266 29.9289 24.9758 29.9289C23.9031 29.9289 23.4872 31.0892 23.312 31.9649C22.9837 33.6286 23.0055 35.3362 22.8961 37H17.4888C17.9485 32.4684 18.2769 28.2432 18.2988 22.3981ZM38.7821 26.0541V27.0392C39.5483 26.3168 40.2707 25.7695 41.3872 25.7695C41.6718 25.7695 41.9345 25.8132 42.1972 25.857L42.3504 30.2354C42.0002 30.1259 41.628 30.0603 41.2559 30.0603C40.0518 30.0603 39.198 30.6295 38.8477 31.7897C38.5632 32.6654 38.5413 34.4386 38.5413 35.4019C38.5413 35.9273 38.5632 36.4746 38.6069 37H33.3091C33.5718 34.1103 33.7688 31.527 33.7688 26.0541H38.7821ZM44.6884 29.71L45.2138 26.47C47.1622 26.0759 49.1325 25.7695 51.1028 25.7695C54.2333 25.7695 55.7001 27.0173 55.7001 28.5497C55.7001 30.8703 55.3717 32.6216 55.2841 37H50.0957C50.2709 35.5989 50.3365 34.1759 50.4022 32.753C49.833 32.9719 48.2568 33.1689 48.2568 33.8257C48.2568 34.2197 48.629 34.3073 48.9574 34.3073C49.2201 34.3073 49.4828 34.2416 49.7017 34.1541L48.7603 37.1751C48.2568 37.2408 47.7533 37.2846 47.2498 37.2846C44.2506 37.2846 43.0903 35.6865 43.0903 34.0227C43.0903 29.4254 50.3147 30.6076 50.3147 29.3378C50.3147 28.7468 49.7674 28.7468 49.4171 28.7468C47.8847 28.7468 46.1333 29.2065 44.6884 29.71ZM67.3592 26.1854L67.5781 29.7757C66.7243 29.4473 65.8487 29.2722 64.9511 29.2722C64.6665 29.2722 63.6814 29.2284 63.6814 29.6662C63.6814 30.2792 67.2497 31.2643 67.2497 33.8257C67.2497 36.6059 64.2287 37.2846 61.9957 37.2846C60.6384 37.2846 59.303 37.0438 57.9676 36.803L57.5954 32.9719C58.6462 33.3659 59.7408 33.7819 60.8792 33.7819C61.1419 33.7819 61.9519 33.76 61.9519 33.3878C61.9519 32.7092 58.3835 31.7459 58.3835 29.097C58.3835 27.4551 59.3687 25.7695 63.1341 25.7695C64.557 25.7695 65.9581 25.9665 67.3592 26.1854ZM81.4386 32.3151H74.1924C74.1924 33.7162 75.5278 33.8695 76.6224 33.8695C77.9359 33.8695 79.3589 33.4973 80.6067 33.147L79.9718 36.8905C78.6364 37.1314 77.301 37.2846 75.9437 37.2846C74.2143 37.2846 69.0259 37.2846 69.0259 31.9649C69.0259 30.0822 69.7921 25.7695 75.6372 25.7695C78.8772 25.7695 81.6137 27.0173 81.6137 30.6514C81.6137 31.1986 81.548 31.7459 81.4386 32.3151ZM74.3018 30.323H76.688V29.9289C76.688 29.2503 76.3597 28.7468 75.6153 28.7468C74.7178 28.7468 74.3894 29.5568 74.3018 30.323Z"/>
</mask>
<path d="M19.9828 11.8773L19.129 8.37459C19.326 8.44027 19.5449 8.48405 19.7638 8.48405C20.5957 8.48405 21.2963 8.11189 21.2963 7.17054C21.2963 6.29486 20.7271 6.11973 19.9609 6.11973C19.5668 6.11973 19.1728 6.18541 18.8006 6.22919C18.6036 9.35973 18.4503 12.2932 18.4503 17H13.1306C13.3933 14.8108 13.7873 7.69595 13.7873 2.39811H22.4784C24.8428 2.39811 26.7473 3.95243 26.7473 6.84216C26.7473 10.1259 24.3173 11.9868 21.1868 11.9868C20.7709 11.9868 20.3549 11.943 19.9828 11.8773ZM28.5346 6.05405H33.9638C33.5916 9.55676 33.5916 13.3441 33.5697 17H27.9216C28.3376 13.8038 28.4689 10.7608 28.5346 6.05405ZM28.7535 2.11351H33.9419C33.8981 2.81405 33.8106 3.90865 33.7668 5.09081H28.6879C28.7535 4.08378 28.7535 3.09865 28.7535 2.11351ZM45.313 12.8624L44.6782 16.8468C43.5398 17.1314 42.3795 17.2846 41.2193 17.2846C36.206 17.2846 35.4398 13.8038 35.4398 11.7897C35.4398 8.19946 37.2568 5.76946 41.7447 5.76946C42.9706 5.76946 44.1747 5.90081 45.3568 6.18541L45.5976 10.1478C44.7438 9.84135 43.8463 9.60054 42.9268 9.60054C41.6133 9.60054 40.7376 10.2354 40.7376 11.5927C40.7376 12.8405 41.4601 13.4535 42.686 13.4535C43.5179 13.4535 44.5249 13.1908 45.313 12.8624ZM56.071 9.77568H53.838C53.7724 10.4981 53.7067 11.2205 53.7067 12.0524C53.7067 12.8624 53.838 13.4535 54.7794 13.4535C55.261 13.4535 55.7208 13.3003 56.2024 13.1689L55.5018 16.8905C54.451 17.1532 53.3783 17.2846 52.2618 17.2846C50.1164 17.2846 48.4089 16.7592 48.4089 14.2854C48.4089 12.8186 48.6497 11.33 48.6935 9.77568H46.9202L47.0735 6.05405H48.9999L49.1532 4.10567L54.1008 3.01108L53.9694 6.05405H56.1805L56.071 9.77568ZM64.3366 5.76946C67.8393 5.76946 71.0355 7.58649 71.0355 11.4395C71.0355 15.4676 67.8174 17.2846 64.1396 17.2846C59.3452 17.2846 57.3531 14.5043 57.3531 11.7678C57.3531 7.80541 60.6806 5.76946 64.3366 5.76946ZM64.3147 9.49108C63.1106 9.49108 62.6509 10.6295 62.6509 11.7241C62.6509 12.6873 63.0887 13.563 64.0958 13.563C65.2779 13.563 65.7377 12.3151 65.7377 11.2643C65.7377 10.323 65.2779 9.49108 64.3147 9.49108ZM9.5499 31.8773L8.69611 28.3746C8.89314 28.4403 9.11206 28.4841 9.33098 28.4841C10.1629 28.4841 10.8634 28.1119 10.8634 27.1705C10.8634 26.2949 10.2942 26.1197 9.52801 26.1197C9.13395 26.1197 8.7399 26.1854 8.36774 26.2292C8.17071 29.3597 8.01747 32.2932 8.01747 37H2.69774C2.96044 34.8108 3.35449 27.6959 3.35449 22.3981H12.0456C14.4099 22.3981 16.3145 23.9524 16.3145 26.8422C16.3145 30.1259 13.8845 31.9868 10.754 31.9868C10.338 31.9868 9.92206 31.943 9.5499 31.8773ZM18.2988 22.3981H23.728C23.5747 24.04 23.3996 25.66 23.3996 27.2143C23.9688 26.667 25.2166 25.7695 27.362 25.7695C30.3831 25.7695 31.412 27.1924 31.412 28.9876C31.412 29.8632 31.1055 33.7162 31.0837 37H25.742C25.8515 35.3581 26.0266 33.7162 26.0266 32.0743C26.0266 31.2862 26.0266 29.9289 24.9758 29.9289C23.9031 29.9289 23.4872 31.0892 23.312 31.9649C22.9837 33.6286 23.0055 35.3362 22.8961 37H17.4888C17.9485 32.4684 18.2769 28.2432 18.2988 22.3981ZM38.7821 26.0541V27.0392C39.5483 26.3168 40.2707 25.7695 41.3872 25.7695C41.6718 25.7695 41.9345 25.8132 42.1972 25.857L42.3504 30.2354C42.0002 30.1259 41.628 30.0603 41.2559 30.0603C40.0518 30.0603 39.198 30.6295 38.8477 31.7897C38.5632 32.6654 38.5413 34.4386 38.5413 35.4019C38.5413 35.9273 38.5632 36.4746 38.6069 37H33.3091C33.5718 34.1103 33.7688 31.527 33.7688 26.0541H38.7821ZM44.6884 29.71L45.2138 26.47C47.1622 26.0759 49.1325 25.7695 51.1028 25.7695C54.2333 25.7695 55.7001 27.0173 55.7001 28.5497C55.7001 30.8703 55.3717 32.6216 55.2841 37H50.0957C50.2709 35.5989 50.3365 34.1759 50.4022 32.753C49.833 32.9719 48.2568 33.1689 48.2568 33.8257C48.2568 34.2197 48.629 34.3073 48.9574 34.3073C49.2201 34.3073 49.4828 34.2416 49.7017 34.1541L48.7603 37.1751C48.2568 37.2408 47.7533 37.2846 47.2498 37.2846C44.2506 37.2846 43.0903 35.6865 43.0903 34.0227C43.0903 29.4254 50.3147 30.6076 50.3147 29.3378C50.3147 28.7468 49.7674 28.7468 49.4171 28.7468C47.8847 28.7468 46.1333 29.2065 44.6884 29.71ZM67.3592 26.1854L67.5781 29.7757C66.7243 29.4473 65.8487 29.2722 64.9511 29.2722C64.6665 29.2722 63.6814 29.2284 63.6814 29.6662C63.6814 30.2792 67.2497 31.2643 67.2497 33.8257C67.2497 36.6059 64.2287 37.2846 61.9957 37.2846C60.6384 37.2846 59.303 37.0438 57.9676 36.803L57.5954 32.9719C58.6462 33.3659 59.7408 33.7819 60.8792 33.7819C61.1419 33.7819 61.9519 33.76 61.9519 33.3878C61.9519 32.7092 58.3835 31.7459 58.3835 29.097C58.3835 27.4551 59.3687 25.7695 63.1341 25.7695C64.557 25.7695 65.9581 25.9665 67.3592 26.1854ZM81.4386 32.3151H74.1924C74.1924 33.7162 75.5278 33.8695 76.6224 33.8695C77.9359 33.8695 79.3589 33.4973 80.6067 33.147L79.9718 36.8905C78.6364 37.1314 77.301 37.2846 75.9437 37.2846C74.2143 37.2846 69.0259 37.2846 69.0259 31.9649C69.0259 30.0822 69.7921 25.7695 75.6372 25.7695C78.8772 25.7695 81.6137 27.0173 81.6137 30.6514C81.6137 31.1986 81.548 31.7459 81.4386 32.3151ZM74.3018 30.323H76.688V29.9289C76.688 29.2503 76.3597 28.7468 75.6153 28.7468C74.7178 28.7468 74.3894 29.5568 74.3018 30.323Z" fill="white"/>
<path d="M19.9828 11.8773L18.2103 12.3093L18.4925 13.4668L19.6657 13.6739L19.9828 11.8773ZM19.129 8.37459L19.7059 6.64389L16.575 5.60026L17.3565 8.80662L19.129 8.37459ZM18.8006 6.22919L18.5874 4.41736L17.0755 4.59524L16.9799 6.1146L18.8006 6.22919ZM18.4503 17V18.8243H20.2746V17H18.4503ZM13.1306 17L11.3193 16.7826L11.0743 18.8243H13.1306V17ZM13.7873 2.39811V0.573783H11.963V2.39811H13.7873ZM21.7552 11.4453L20.9014 7.94256L17.3565 8.80662L18.2103 12.3093L21.7552 11.4453ZM18.5521 10.1053C18.894 10.2193 19.3098 10.3084 19.7638 10.3084V6.65973C19.7749 6.65973 19.7739 6.66072 19.7605 6.65832C19.7473 6.65596 19.7285 6.65142 19.7059 6.64389L18.5521 10.1053ZM19.7638 10.3084C20.4144 10.3084 21.2367 10.1681 21.9412 9.63633C22.7245 9.04496 23.1206 8.15109 23.1206 7.17054H19.4719C19.4719 7.17733 19.4716 7.10576 19.523 6.99644C19.5764 6.88283 19.6578 6.78849 19.7429 6.72428C19.7819 6.69479 19.8155 6.67628 19.8388 6.66537C19.8617 6.65459 19.8752 6.65087 19.8762 6.65062C19.8771 6.65037 19.8682 6.65282 19.8482 6.65525C19.8283 6.65767 19.8003 6.65973 19.7638 6.65973V10.3084ZM23.1206 7.17054C23.1206 6.29255 22.7984 5.35888 21.9033 4.78275C21.1924 4.32517 20.3937 4.29541 19.9609 4.29541V7.94405C20.0229 7.94405 20.0701 7.94587 20.1052 7.94843C20.1224 7.94969 20.1353 7.95103 20.1443 7.95215C20.1488 7.9527 20.1521 7.95318 20.1544 7.95353C20.1567 7.95388 20.1578 7.95408 20.1577 7.95407C20.1577 7.95406 20.1564 7.95382 20.1539 7.95327C20.1515 7.95272 20.1477 7.95184 20.1428 7.95054C20.1331 7.94796 20.1179 7.94353 20.0983 7.93641C20.0592 7.92224 19.9991 7.89619 19.9285 7.85077C19.7695 7.74845 19.6287 7.59329 19.5431 7.4104C19.4668 7.24732 19.4719 7.14288 19.4719 7.17054H23.1206ZM19.9609 4.29541C19.4247 4.29541 18.8412 4.38751 18.5874 4.41736L19.0137 8.04102C19.5043 7.9833 19.7089 7.94405 19.9609 7.94405V4.29541ZM16.9799 6.1146C16.7813 9.26934 16.626 12.2432 16.626 17H20.2746C20.2746 12.3433 20.4258 9.45012 20.6213 6.34378L16.9799 6.1146ZM18.4503 15.1757H13.1306V18.8243H18.4503V15.1757ZM14.9419 17.2174C15.2163 14.9312 15.6117 7.73827 15.6117 2.39811H11.963C11.963 7.65362 11.5703 14.6905 11.3193 16.7826L14.9419 17.2174ZM13.7873 4.22243H22.4784V0.573783H13.7873V4.22243ZM22.4784 4.22243C23.262 4.22243 23.848 4.47548 24.2282 4.8449C24.5955 5.20181 24.923 5.81457 24.923 6.84216H28.5717C28.5717 4.98002 27.9469 3.37076 26.7708 2.22807C25.6076 1.09789 24.0592 0.573783 22.4784 0.573783V4.22243ZM24.923 6.84216C24.923 7.99997 24.512 8.77118 23.9384 9.2741C23.3357 9.80244 22.4019 10.1624 21.1868 10.1624V13.8111C23.1022 13.8111 24.9487 13.2407 26.3437 12.0177C27.7677 10.7692 28.5717 8.96814 28.5717 6.84216H24.923ZM21.1868 10.1624C20.8935 10.1624 20.5847 10.131 20.2998 10.0807L19.6657 13.6739C20.1251 13.7549 20.6482 13.8111 21.1868 13.8111V10.1624ZM28.5346 6.05405V4.22973H26.7356L26.7105 6.0286L28.5346 6.05405ZM33.9638 6.05405L35.7779 6.2468L35.9922 4.22973H33.9638V6.05405ZM33.5697 17V18.8243H35.3832L35.394 17.0109L33.5697 17ZM27.9216 17L26.1126 16.7646L25.8445 18.8243H27.9216V17ZM28.7535 2.11351V0.289189H26.9292V2.11351H28.7535ZM33.9419 2.11351L35.7627 2.22731L35.8838 0.289189H33.9419V2.11351ZM33.7668 5.09081V6.91513H35.5248L35.5898 5.15833L33.7668 5.09081ZM28.6879 5.09081L26.8674 4.97209L26.7407 6.91513H28.6879V5.09081ZM28.5346 7.87838H33.9638V4.22973H28.5346V7.87838ZM32.1497 5.8613C31.7658 9.47444 31.7672 13.3642 31.7455 16.9891L35.394 17.0109C35.4161 13.3239 35.4175 9.63908 35.7779 6.2468L32.1497 5.8613ZM33.5697 15.1757H27.9216V18.8243H33.5697V15.1757ZM29.7307 17.2354C30.1606 13.932 30.2928 10.8041 30.3588 6.07951L26.7105 6.0286C26.645 10.7175 26.5146 13.6756 26.1126 16.7646L29.7307 17.2354ZM28.7535 3.93784H33.9419V0.289189H28.7535V3.93784ZM32.1211 1.99972C32.0799 2.65929 31.9886 3.81064 31.9437 5.02329L35.5898 5.15833C35.6325 4.00665 35.7163 2.96882 35.7627 2.22731L32.1211 1.99972ZM33.7668 3.26649H28.6879V6.91513H33.7668V3.26649ZM30.5083 5.20954C30.5785 4.13369 30.5779 3.08979 30.5779 2.11351H26.9292C26.9292 3.1075 26.9286 4.03388 26.8674 4.97209L30.5083 5.20954ZM45.313 12.8624L47.1146 13.1495L47.6291 9.92107L44.6114 11.1784L45.313 12.8624ZM44.6782 16.8468L45.1206 18.6166L46.2901 18.3242L46.4798 17.1338L44.6782 16.8468ZM45.3568 6.18541L47.1778 6.07474L47.0959 4.72763L45.7838 4.41175L45.3568 6.18541ZM45.5976 10.1478L44.9813 11.8649L47.5865 12.8001L47.4186 10.0372L45.5976 10.1478ZM43.5114 12.5754L42.8766 16.5597L46.4798 17.1338L47.1146 13.1495L43.5114 12.5754ZM44.2357 15.0769C43.2304 15.3282 42.2189 15.4603 41.2193 15.4603V19.1089C42.5402 19.1089 43.8491 18.9345 45.1206 18.6166L44.2357 15.0769ZM41.2193 15.4603C39.1858 15.4603 38.3385 14.7864 37.9236 14.2175C37.4312 13.5424 37.2641 12.6195 37.2641 11.7897H33.6155C33.6155 12.974 33.8315 14.7986 34.9756 16.3674C36.1971 18.0423 38.2395 19.1089 41.2193 19.1089V15.4603ZM37.2641 11.7897C37.2641 10.2798 37.6455 9.29995 38.2246 8.69743C38.7904 8.10877 39.8209 7.59378 41.7447 7.59378V3.94514C39.1806 3.94514 37.0587 4.64515 35.594 6.16906C34.1426 7.67911 33.6155 9.70938 33.6155 11.7897H37.2641ZM41.7447 7.59378C42.8392 7.59378 43.8991 7.71092 44.9298 7.95906L45.7838 4.41175C44.4502 4.0907 43.102 3.94514 41.7447 3.94514V7.59378ZM43.5359 6.29607L43.7767 10.2585L47.4186 10.0372L47.1778 6.07474L43.5359 6.29607ZM46.214 8.43079C45.2807 8.09575 44.1532 7.77622 42.9268 7.77622V11.4249C43.5394 11.4249 44.207 11.587 44.9813 11.8649L46.214 8.43079ZM42.9268 7.77622C42.0042 7.77622 40.9755 7.997 40.1524 8.7025C39.2833 9.44749 38.9133 10.4994 38.9133 11.5927H42.562C42.562 11.4484 42.5851 11.3955 42.583 11.4006C42.5781 11.4127 42.559 11.4452 42.5269 11.4728C42.47 11.5215 42.5359 11.4249 42.9268 11.4249V7.77622ZM38.9133 11.5927C38.9133 12.5701 39.2058 13.5823 40.0124 14.3295C40.7951 15.0544 41.7922 15.2778 42.686 15.2778V11.6292C42.5273 11.6292 42.4459 11.6089 42.4212 11.601C42.4102 11.5975 42.4146 11.5978 42.4295 11.6062C42.4449 11.6149 42.4672 11.6299 42.4918 11.6526C42.5165 11.6755 42.5375 11.7008 42.5537 11.7253C42.5697 11.7496 42.577 11.767 42.579 11.7723C42.5824 11.7814 42.562 11.7317 42.562 11.5927H38.9133ZM42.686 15.2778C43.8346 15.2778 45.087 14.933 46.0147 14.5464L44.6114 11.1784C43.9629 11.4487 43.2012 11.6292 42.686 11.6292V15.2778ZM56.071 9.77568V11.6H57.8425L57.8946 9.82931L56.071 9.77568ZM53.838 9.77568V7.95135H52.1721L52.0212 9.61051L53.838 9.77568ZM56.2024 13.1689L57.9952 13.5064L58.5344 10.642L55.7224 11.4089L56.2024 13.1689ZM55.5018 16.8905L55.9443 18.6604L57.0784 18.3769L57.2947 17.228L55.5018 16.8905ZM48.6935 9.77568L50.5171 9.82704L50.5699 7.95135H48.6935V9.77568ZM46.9202 9.77568L45.0974 9.70062L45.0192 11.6H46.9202V9.77568ZM47.0735 6.05405V4.22973H45.3227L45.2507 5.979L47.0735 6.05405ZM48.9999 6.05405V7.87838H50.6864L50.8186 6.1971L48.9999 6.05405ZM49.1532 4.10567L48.7591 2.32442L47.4404 2.61618L47.3345 3.96263L49.1532 4.10567ZM54.1008 3.01108L55.9234 3.08975L56.0258 0.716744L53.7067 1.22983L54.1008 3.01108ZM53.9694 6.05405L52.1468 5.97538L52.0646 7.87838H53.9694V6.05405ZM56.1805 6.05405L58.004 6.10769L58.0593 4.22973H56.1805V6.05405ZM56.071 7.95135H53.838V11.6H56.071V7.95135ZM52.0212 9.61051C51.956 10.3277 51.8824 11.1271 51.8824 12.0524H55.531C55.531 11.314 55.5887 10.6685 55.6549 9.94084L52.0212 9.61051ZM51.8824 12.0524C51.8824 12.4456 51.8883 13.2717 52.3287 14.0004C52.9092 14.9608 53.8895 15.2778 54.7794 15.2778V11.6292C54.7252 11.6292 54.8247 11.6194 54.9913 11.6977C55.1842 11.7885 55.3475 11.9413 55.4514 12.1131C55.5386 12.2575 55.5484 12.3563 55.5435 12.3256C55.5387 12.2956 55.531 12.2174 55.531 12.0524H51.8824ZM54.7794 15.2778C55.5736 15.2778 56.3501 15.0196 56.6824 14.929L55.7224 11.4089C55.0914 11.581 54.9485 11.6292 54.7794 11.6292V15.2778ZM54.4095 12.8314L53.709 16.5531L57.2947 17.228L57.9952 13.5064L54.4095 12.8314ZM55.0594 15.1207C54.1562 15.3465 53.2323 15.4603 52.2618 15.4603V19.1089C53.5244 19.1089 54.7458 18.96 55.9443 18.6604L55.0594 15.1207ZM52.2618 15.4603C51.2575 15.4603 50.7417 15.3203 50.5075 15.1718C50.4282 15.1215 50.3858 15.0737 50.349 14.9982C50.3045 14.9069 50.2332 14.6978 50.2332 14.2854H46.5845C46.5845 16.0042 47.2209 17.4084 48.5541 18.2535C49.7101 18.9862 51.1207 19.1089 52.2618 19.1089V15.4603ZM50.2332 14.2854C50.2332 13.6415 50.2861 12.9758 50.3521 12.2226C50.4161 11.4918 50.4933 10.6702 50.5171 9.82704L46.8699 9.72431C46.8498 10.4355 46.7847 11.1353 46.7174 11.9042C46.652 12.6506 46.5845 13.4626 46.5845 14.2854H50.2332ZM48.6935 7.95135H46.9202V11.6H48.6935V7.95135ZM48.743 9.85073L48.8962 6.12911L45.2507 5.979L45.0974 9.70062L48.743 9.85073ZM47.0735 7.87838H48.9999V4.22973H47.0735V7.87838ZM50.8186 6.1971L50.9719 4.24872L47.3345 3.96263L47.1812 5.91101L50.8186 6.1971ZM49.5473 5.88693L54.4948 4.79233L53.7067 1.22983L48.7591 2.32442L49.5473 5.88693ZM52.2781 2.93241L52.1468 5.97538L55.792 6.13273L55.9234 3.08975L52.2781 2.93241ZM53.9694 7.87838H56.1805V4.22973H53.9694V7.87838ZM54.3569 6.00042L54.2475 9.72204L57.8946 9.82931L58.004 6.10769L54.3569 6.00042ZM64.3366 7.59378C65.8012 7.59378 67.0569 7.97743 67.8988 8.61441C68.6804 9.20577 69.2112 10.085 69.2112 11.4395H72.8598C72.8598 8.94094 71.7925 6.98518 70.1003 5.70478C68.4684 4.47 66.3747 3.94514 64.3366 3.94514V7.59378ZM69.2112 11.4395C69.2112 12.9034 68.6576 13.818 67.8651 14.4184C67.0066 15.0688 65.7087 15.4603 64.1396 15.4603V19.1089C66.2483 19.1089 68.3983 18.5919 70.0683 17.3267C71.8043 16.0116 72.8598 14.0037 72.8598 11.4395H69.2112ZM64.1396 15.4603C62.0991 15.4603 60.8883 14.8756 60.2015 14.2265C59.5094 13.5724 59.1774 12.6931 59.1774 11.7678H55.5287C55.5287 13.579 56.1928 15.4581 57.6953 16.8782C59.2032 18.3034 61.3857 19.1089 64.1396 19.1089V15.4603ZM59.1774 11.7678C59.1774 10.3595 59.7415 9.3869 60.5951 8.72178C61.498 8.01827 62.8231 7.59378 64.3366 7.59378V3.94514C62.1941 3.94514 60.0274 4.53862 58.3525 5.84369C56.6284 7.18715 55.5287 9.21372 55.5287 11.7678H59.1774ZM64.3147 7.66676C63.0222 7.66676 62.0517 8.3293 61.4876 9.2248C60.9796 10.0313 60.8266 10.9638 60.8266 11.7241H64.4752C64.4752 11.5741 64.4913 11.4408 64.5165 11.335C64.5422 11.2269 64.57 11.1771 64.5749 11.1694C64.5765 11.1669 64.5453 11.2156 64.4655 11.2621C64.3792 11.3124 64.3128 11.3154 64.3147 11.3154V7.66676ZM60.8266 11.7241C60.8266 12.4459 60.9853 13.3072 61.4966 14.0444C62.0625 14.8603 62.9762 15.3873 64.0958 15.3873V11.7386C64.1161 11.7386 64.1982 11.7453 64.3018 11.8004C64.4033 11.8544 64.4656 11.9229 64.4948 11.965C64.5201 12.0016 64.5131 12.0064 64.5002 11.957C64.4876 11.9087 64.4752 11.8301 64.4752 11.7241H60.8266ZM64.0958 15.3873C65.4636 15.3873 66.4119 14.6112 66.9295 13.7377C67.4056 12.9344 67.562 12.0117 67.562 11.2643H63.9133C63.9133 11.3984 63.8982 11.5342 63.8704 11.6536C63.8421 11.7755 63.8082 11.8478 63.7906 11.8777C63.7743 11.9051 63.7923 11.863 63.8706 11.8131C63.9616 11.7551 64.0529 11.7386 64.0958 11.7386V15.3873ZM67.562 11.2643C67.562 10.5278 67.3864 9.67626 66.866 8.95612C66.2979 8.17 65.3992 7.66676 64.3147 7.66676V11.3154C64.2856 11.3154 64.2034 11.3071 64.1028 11.2549C64.0043 11.2038 63.9411 11.138 63.9088 11.0933C63.8798 11.0532 63.8825 11.0405 63.8924 11.0762C63.902 11.1111 63.9133 11.1744 63.9133 11.2643H67.562ZM9.5499 31.8773L7.77747 32.3093L8.05961 33.4668L9.23286 33.6739L9.5499 31.8773ZM8.69611 28.3746L9.27301 26.6439L6.14213 25.6003L6.92368 28.8066L8.69611 28.3746ZM8.36774 26.2292L8.15458 24.4174L6.64264 24.5952L6.54701 26.1146L8.36774 26.2292ZM8.01747 37V38.8243H9.84179V37H8.01747ZM2.69774 37L0.886406 36.7826L0.641404 38.8243H2.69774V37ZM3.35449 22.3981V20.5738H1.53017V22.3981H3.35449ZM11.3223 31.4453L10.4685 27.9426L6.92368 28.8066L7.77747 32.3093L11.3223 31.4453ZM8.11921 30.1053C8.46116 30.2193 8.8769 30.3084 9.33098 30.3084V26.6597C9.34206 26.6597 9.34101 26.6607 9.32763 26.6583C9.31446 26.656 9.29561 26.6514 9.27301 26.6439L8.11921 30.1053ZM9.33098 30.3084C9.98151 30.3084 10.8039 30.1681 11.5083 29.6363C12.2917 29.045 12.6877 28.1511 12.6877 27.1705H9.03909C9.03909 27.1773 9.0387 27.1058 9.09012 26.9964C9.14356 26.8828 9.22494 26.7885 9.31 26.7243C9.34906 26.6948 9.38269 26.6763 9.40593 26.6654C9.42888 26.6546 9.44239 26.6509 9.44332 26.6506C9.44423 26.6504 9.43536 26.6528 9.41537 26.6552C9.39549 26.6577 9.3674 26.6597 9.33098 26.6597V30.3084ZM12.6877 27.1705C12.6877 26.2926 12.3655 25.3589 11.4704 24.7827C10.7596 24.3252 9.96085 24.2954 9.52801 24.2954V27.9441C9.59008 27.9441 9.63723 27.9459 9.67235 27.9484C9.68953 27.9497 9.70242 27.951 9.71148 27.9521C9.71596 27.9527 9.71929 27.9532 9.72156 27.9535C9.72383 27.9539 9.7249 27.9541 9.72486 27.9541C9.72481 27.9541 9.72352 27.9538 9.72108 27.9533C9.71863 27.9527 9.71489 27.9518 9.70998 27.9505C9.70026 27.948 9.68509 27.9435 9.66547 27.9364C9.62637 27.9222 9.5662 27.8962 9.49563 27.8508C9.33668 27.7484 9.19588 27.5933 9.11026 27.4104C9.03392 27.2473 9.03909 27.1429 9.03909 27.1705H12.6877ZM9.52801 24.2954C8.99186 24.2954 8.40834 24.3875 8.15458 24.4174L8.58089 28.041C9.07146 27.9833 9.27604 27.9441 9.52801 27.9441V24.2954ZM6.54701 26.1146C6.34846 29.2693 6.19314 32.2432 6.19314 37H9.84179C9.84179 32.3433 9.99295 29.4501 10.1885 26.3438L6.54701 26.1146ZM8.01747 35.1757H2.69774V38.8243H8.01747V35.1757ZM4.50906 37.2174C4.78341 34.9312 5.17882 27.7383 5.17882 22.3981H1.53017C1.53017 27.6536 1.13747 34.6905 0.886406 36.7826L4.50906 37.2174ZM3.35449 24.2224H12.0456V20.5738H3.35449V24.2224ZM12.0456 24.2224C12.8292 24.2224 13.4152 24.4755 13.7954 24.8449C14.1627 25.2018 14.4902 25.8146 14.4902 26.8422H18.1388C18.1388 24.98 17.514 23.3708 16.338 22.2281C15.1748 21.0979 13.6263 20.5738 12.0456 20.5738V24.2224ZM14.4902 26.8422C14.4902 28 14.0792 28.7712 13.5055 29.2741C12.9029 29.8024 11.9691 30.1624 10.754 30.1624V33.8111C12.6694 33.8111 14.5158 33.2407 15.9108 32.0177C17.3348 30.7692 18.1388 28.9681 18.1388 26.8422H14.4902ZM10.754 30.1624C10.4607 30.1624 10.1519 30.131 9.86694 30.0807L9.23286 33.6739C9.69224 33.7549 10.2154 33.8111 10.754 33.8111V30.1624ZM18.2988 22.3981V20.5738H16.4813L16.4745 22.3913L18.2988 22.3981ZM23.728 22.3981L25.5444 22.5676L25.7305 20.5738H23.728V22.3981ZM23.3996 27.2143H21.5753V31.4993L24.6641 28.5294L23.3996 27.2143ZM31.0837 37V38.8243H32.8959L32.9079 37.0122L31.0837 37ZM25.742 37L23.9217 36.8786L23.792 38.8243H25.742V37ZM23.312 31.9649L21.5231 31.6071L21.5222 31.6116L23.312 31.9649ZM22.8961 37V38.8243H24.6043L24.7165 37.1198L22.8961 37ZM17.4888 37L15.6738 36.8159L15.47 38.8243H17.4888V37ZM18.2988 24.2224H23.728V20.5738H18.2988V24.2224ZM21.9115 22.2286C21.7626 23.8245 21.5753 25.5526 21.5753 27.2143H25.2239C25.2239 25.7674 25.3869 24.2555 25.5444 22.5676L21.9115 22.2286ZM24.6641 28.5294C24.9719 28.2333 25.7868 27.5938 27.362 27.5938V23.9451C24.6464 23.9451 22.9656 25.1007 22.1351 25.8993L24.6641 28.5294ZM27.362 27.5938C28.6156 27.5938 29.113 27.8909 29.2893 28.0521C29.4384 28.1883 29.5877 28.4358 29.5877 28.9876H33.2364C33.2364 27.7442 32.8712 26.3827 31.7506 25.3586C30.6572 24.3595 29.1295 23.9451 27.362 23.9451V27.5938ZM29.5877 28.9876C29.5877 29.3604 29.5174 30.4414 29.4343 31.9933C29.3547 33.4823 29.2706 35.3014 29.2594 36.9878L32.9079 37.0122C32.9186 35.4148 32.9987 33.6655 33.0778 32.1882C33.1535 30.7737 33.2364 29.4904 33.2364 28.9876H29.5877ZM31.0837 35.1757H25.742V38.8243H31.0837V35.1757ZM27.5623 37.1214C27.6653 35.5768 27.8509 33.7968 27.8509 32.0743H24.2023C24.2023 33.6356 24.0377 35.1394 23.9217 36.8786L27.5623 37.1214ZM27.8509 32.0743C27.8509 31.741 27.8651 30.9232 27.6427 30.1819C27.5249 29.7895 27.2994 29.2647 26.8359 28.827C26.328 28.3473 25.6739 28.1046 24.9758 28.1046V31.7532C24.908 31.7532 24.7983 31.7417 24.6682 31.6917C24.5361 31.6409 24.4212 31.5651 24.3307 31.4796C24.1628 31.321 24.1342 31.1848 24.1479 31.2303C24.1591 31.2676 24.1785 31.3617 24.1902 31.5321C24.2017 31.6984 24.2023 31.8705 24.2023 32.0743H27.8509ZM24.9758 28.1046C23.6426 28.1046 22.7634 28.8779 22.2782 29.6235C21.8299 30.3126 21.6265 31.0902 21.5231 31.6071L25.1009 32.3226C25.1334 32.1604 25.1726 32.0078 25.2188 31.8748C25.266 31.7383 25.3094 31.6551 25.3364 31.6135C25.363 31.5727 25.3476 31.612 25.2668 31.6633C25.1694 31.7253 25.0575 31.7532 24.9758 31.7532V28.1046ZM21.5222 31.6116C21.1636 33.4287 21.1724 35.41 21.0757 36.8802L24.7165 37.1198C24.8387 35.2625 24.8037 33.8286 25.1018 32.3181L21.5222 31.6116ZM22.8961 35.1757H17.4888V38.8243H22.8961V35.1757ZM19.3038 37.1841C19.7674 32.6145 20.1009 28.3271 20.1231 22.4049L16.4745 22.3913C16.4529 28.1594 16.1296 32.3223 15.6738 36.8159L19.3038 37.1841ZM38.7821 26.0541H40.6064V24.2297H38.7821V26.0541ZM38.7821 27.0392H36.9577V31.2666L40.0336 28.3665L38.7821 27.0392ZM42.1972 25.857L44.0204 25.7932L43.9682 24.3027L42.4971 24.0575L42.1972 25.857ZM42.3504 30.2354L41.8063 31.9767L44.2637 32.7446L44.1737 30.1716L42.3504 30.2354ZM38.8477 31.7897L40.5827 32.3536L40.5887 32.3353L40.5942 32.317L38.8477 31.7897ZM38.6069 37V38.8243H40.5896L40.425 36.8485L38.6069 37ZM33.3091 37L31.4923 36.8348L31.3114 38.8243H33.3091V37ZM33.7688 26.0541V24.2297H31.9445V26.0541H33.7688ZM36.9577 26.0541V27.0392H40.6064V26.0541H36.9577ZM40.0336 28.3665C40.391 28.0296 40.6246 27.8454 40.8276 27.7346C40.9947 27.6433 41.1558 27.5938 41.3872 27.5938V23.9451C39.5363 23.9451 38.3684 24.9219 37.5306 25.7118L40.0336 28.3665ZM41.3872 27.5938C41.4982 27.5938 41.6168 27.6098 41.8973 27.6565L42.4971 24.0575C42.2522 24.0167 41.8454 23.9451 41.3872 23.9451V27.5938ZM40.374 25.9208L40.5272 30.2992L44.1737 30.1716L44.0204 25.7932L40.374 25.9208ZM42.8946 28.4941C42.3957 28.3382 41.8393 28.2359 41.2559 28.2359V31.8846C41.4167 31.8846 41.6047 31.9137 41.8063 31.9767L42.8946 28.4941ZM41.2559 28.2359C40.3674 28.2359 39.4621 28.448 38.6808 28.9987C37.8891 29.5565 37.3748 30.3565 37.1013 31.2625L40.5942 32.317C40.671 32.0627 40.7587 31.9979 40.7825 31.9811C40.8166 31.9571 40.9403 31.8846 41.2559 31.8846V28.2359ZM37.1128 31.2259C36.8922 31.9044 36.8083 32.7719 36.7668 33.4519C36.7223 34.1821 36.7169 34.9111 36.7169 35.4019H40.3656C40.3656 34.9295 40.3712 34.2902 40.4087 33.674C40.4494 33.0077 40.5187 32.5507 40.5827 32.3536L37.1128 31.2259ZM36.7169 35.4019C36.7169 35.976 36.7408 36.5738 36.7889 37.1515L40.425 36.8485C40.3855 36.3754 40.3656 35.8786 40.3656 35.4019H36.7169ZM38.6069 35.1757H33.3091V38.8243H38.6069V35.1757ZM35.1259 37.1652C35.3929 34.2285 35.5932 31.5896 35.5932 26.0541H31.9445C31.9445 31.4644 31.7507 33.992 31.4923 36.8348L35.1259 37.1652ZM33.7688 27.8784H38.7821V24.2297H33.7688V27.8784ZM44.6884 29.71L42.8876 29.418L42.3975 32.4403L45.2888 31.4327L44.6884 29.71ZM45.2138 26.47L44.8522 24.6819L43.6151 24.9321L43.413 26.178L45.2138 26.47ZM55.2841 37V38.8243H57.0723L57.1081 37.0365L55.2841 37ZM50.0957 37L48.2855 36.7737L48.0292 38.8243H50.0957V37ZM50.4022 32.753L52.2246 32.8371L52.3533 30.0479L49.7473 31.0502L50.4022 32.753ZM49.7017 34.1541L51.4434 34.6968L52.584 31.0363L49.0241 32.4602L49.7017 34.1541ZM48.7603 37.1751L48.9963 38.9841L50.1546 38.8331L50.5021 37.7178L48.7603 37.1751ZM46.4892 30.002L47.0146 26.762L43.413 26.178L42.8876 29.418L46.4892 30.002ZM45.5755 28.2581C47.4802 27.8729 49.3122 27.5938 51.1028 27.5938V23.9451C48.9528 23.9451 46.8442 24.279 44.8522 24.6819L45.5755 28.2581ZM51.1028 27.5938C52.458 27.5938 53.2109 27.8687 53.5659 28.1045C53.8589 28.2992 53.8757 28.4455 53.8757 28.5497H57.5244C57.5244 27.1215 56.8078 25.8777 55.5848 25.0653C54.4238 24.2941 52.878 23.9451 51.1028 23.9451V27.5938ZM53.8757 28.5497C53.8757 29.6293 53.8001 30.5735 53.7054 31.8704C53.6113 33.1604 53.5048 34.7286 53.4602 36.9635L57.1081 37.0365C57.1509 34.893 57.2524 33.3963 57.3444 32.1359C57.4359 30.8824 57.5244 29.7907 57.5244 28.5497H53.8757ZM55.2841 35.1757H50.0957V38.8243H55.2841V35.1757ZM51.906 37.2263C52.0915 35.7424 52.1595 34.2476 52.2246 32.8371L48.5798 32.6689C48.5136 34.1042 48.4503 35.4555 48.2855 36.7737L51.906 37.2263ZM49.7473 31.0502C49.7539 31.0477 49.7296 31.057 49.6497 31.0796C49.5737 31.1011 49.4852 31.1243 49.3657 31.1555C49.148 31.2124 48.8332 31.2941 48.527 31.3985C48.2418 31.4958 47.8186 31.6595 47.4371 31.9378C47.0557 32.2159 46.4325 32.8294 46.4325 33.8257H50.0811C50.0811 34.4936 49.655 34.8362 49.5869 34.8858C49.5187 34.9355 49.5251 34.9132 49.7051 34.8517C49.8642 34.7975 50.0501 34.7478 50.288 34.6857C50.3964 34.6574 50.5244 34.6241 50.6435 34.5903C50.7588 34.5577 50.9083 34.5129 51.0571 34.4557L49.7473 31.0502ZM46.4325 33.8257C46.4325 34.2228 46.5302 34.648 46.7759 35.0385C47.0174 35.4225 47.3379 35.6714 47.6289 35.8258C48.157 36.106 48.6903 36.1316 48.9574 36.1316V32.483C48.896 32.483 49.079 32.4648 49.339 32.6027C49.4959 32.686 49.7028 32.8391 49.8643 33.0958C50.0299 33.3591 50.0811 33.6256 50.0811 33.8257H46.4325ZM48.9574 36.1316C49.5075 36.1316 50.0029 35.9984 50.3792 35.8479L49.0241 32.4602C49.0003 32.4698 48.9768 32.4768 48.9584 32.4808C48.9394 32.485 48.939 32.483 48.9574 32.483V36.1316ZM47.9599 33.6113L47.0186 36.6324L50.5021 37.7178L51.4434 34.6968L47.9599 33.6113ZM48.5244 35.3661C48.07 35.4254 47.6497 35.4603 47.2498 35.4603V39.1089C47.8569 39.1089 48.4436 39.0562 48.9963 38.9841L48.5244 35.3661ZM47.2498 35.4603C46.0664 35.4603 45.5143 35.1486 45.2758 34.9307C45.0461 34.7208 44.9147 34.4246 44.9147 34.0227H41.266C41.266 35.2846 41.7147 36.6194 42.8149 37.6244C43.9063 38.6216 45.434 39.1089 47.2498 39.1089V35.4603ZM44.9147 34.0227C44.9147 33.4383 45.1067 33.1612 45.3761 32.9403C45.7334 32.6472 46.315 32.4035 47.1323 32.2054C47.5239 32.1105 47.9278 32.0352 48.3411 31.9634C48.7297 31.8958 49.1783 31.8232 49.554 31.7458C49.9053 31.6734 50.3901 31.5606 50.8161 31.3488C51.2045 31.1558 52.139 30.565 52.139 29.3378H48.4903C48.4903 28.9372 48.6481 28.5974 48.8438 28.3673C49.0095 28.1724 49.1686 28.0932 49.1923 28.0814C49.2233 28.066 49.1437 28.1051 48.8177 28.1722C48.5162 28.2344 48.1745 28.289 47.7166 28.3686C47.2833 28.4438 46.7841 28.5355 46.2727 28.6595C45.2839 28.8992 44.0594 29.3013 43.0622 30.1192C41.977 31.0093 41.266 32.3085 41.266 34.0227H44.9147ZM52.139 29.3378C52.139 28.9023 52.0346 28.4129 51.7301 27.9671C51.4269 27.5233 51.0265 27.2706 50.688 27.1321C50.1145 26.8975 49.509 26.9224 49.4171 26.9224V30.5711C49.4636 30.5711 49.4893 30.5712 49.5128 30.5717C49.5346 30.5722 49.5413 30.573 49.5383 30.5727C49.5355 30.5724 49.5135 30.5704 49.4778 30.5628C49.4425 30.5554 49.3822 30.5401 49.3065 30.5091C49.1485 30.4445 48.9069 30.3027 48.7173 30.0252C48.5263 29.7455 48.4903 29.4779 48.4903 29.3378H52.139ZM49.4171 26.9224C47.5778 26.9224 45.5968 27.4615 44.0881 27.9873L45.2888 31.4327C46.6698 30.9515 48.1915 30.5711 49.4171 30.5711V26.9224ZM67.3592 26.1854L69.1801 26.0744L69.0908 24.6095L67.6408 24.383L67.3592 26.1854ZM67.5781 29.7757L66.9232 31.4784L69.5718 32.4971L69.3991 29.6646L67.5781 29.7757ZM57.9676 36.803L56.1518 36.9794L56.2853 38.3534L57.6438 38.5983L57.9676 36.803ZM57.5954 32.9719L58.236 31.2637L55.4968 30.2365L55.7796 33.1483L57.5954 32.9719ZM65.5383 26.2964L65.7572 29.8867L69.3991 29.6646L69.1801 26.0744L65.5383 26.2964ZM68.233 28.073C67.1886 27.6713 66.0914 27.4478 64.9511 27.4478V31.0965C65.6059 31.0965 66.2601 31.2233 66.9232 31.4784L68.233 28.073ZM64.9511 27.4478C64.9027 27.4478 64.3902 27.4307 63.9295 27.5023C63.7076 27.5368 63.3036 27.6166 62.9085 27.8512C62.4543 28.1208 61.857 28.7133 61.857 29.6662H65.5057C65.5057 29.9775 65.4111 30.2856 65.236 30.5447C65.0742 30.7842 64.8865 30.9201 64.771 30.9887C64.5695 31.1083 64.4295 31.117 64.4895 31.1077C64.5925 31.0917 64.7148 31.0965 64.9511 31.0965V27.4478ZM61.857 29.6662C61.857 30.5795 62.4664 31.1349 62.5933 31.2527C62.8133 31.457 63.0659 31.6273 63.2411 31.7418C63.6843 32.0314 63.9903 32.2008 64.3988 32.4952C65.205 33.0764 65.4254 33.4864 65.4254 33.8257H69.0741C69.0741 31.6036 67.5103 30.2404 66.5323 29.5354C66.0487 29.1867 65.4626 28.8349 65.2368 28.6873C65.0774 28.5832 65.0512 28.556 65.0761 28.579C65.0913 28.5932 65.1758 28.6718 65.2653 28.8138C65.3556 28.9574 65.5057 29.2537 65.5057 29.6662H61.857ZM65.4254 33.8257C65.4254 34.3694 65.213 34.6816 64.6442 34.966C63.9707 35.3027 62.9806 35.4603 61.9957 35.4603V39.1089C63.2437 39.1089 64.8806 38.9271 66.2759 38.2295C67.776 37.4795 69.0741 36.0622 69.0741 33.8257H65.4254ZM61.9957 35.4603C60.8288 35.4603 59.6541 35.2533 58.2913 35.0076L57.6438 38.5983C58.9519 38.8342 60.448 39.1089 61.9957 39.1089V35.4603ZM59.7834 36.6266L59.4112 32.7955L55.7796 33.1483L56.1518 36.9794L59.7834 36.6266ZM56.9549 34.6801C57.9382 35.0488 59.3507 35.6062 60.8792 35.6062V31.9576C60.131 31.9576 59.3543 31.6831 58.236 31.2637L56.9549 34.6801ZM60.8792 35.6062C61.03 35.6062 61.4663 35.6033 61.9076 35.5058C62.1158 35.4598 62.4866 35.3599 62.8465 35.1154C63.2511 34.8405 63.7762 34.27 63.7762 33.3878H60.1276C60.1276 33.0829 60.2161 32.7899 60.3701 32.5439C60.514 32.314 60.6835 32.1739 60.7959 32.0975C60.9081 32.0212 61.0002 31.9832 61.0433 31.9671C61.0896 31.9498 61.118 31.9436 61.1205 31.9431C61.1217 31.9428 61.0925 31.9484 61.0308 31.9527C60.975 31.9566 60.9206 31.9576 60.8792 31.9576V35.6062ZM63.7762 33.3878C63.7762 32.5257 63.2426 31.9795 63.0812 31.8199C62.8569 31.5982 62.599 31.4164 62.4191 31.2943C61.9489 30.9751 61.677 30.8271 61.2493 30.5121C60.4557 29.9279 60.2078 29.5003 60.2078 29.097H56.5592C56.5592 31.3427 58.0956 32.7212 59.0861 33.4504C59.5505 33.7923 60.1707 34.1779 60.3696 34.3129C60.5243 34.4179 60.5451 34.4434 60.516 34.4146C60.4975 34.3964 60.4171 34.3157 60.3344 34.1734C60.249 34.0264 60.1276 33.7543 60.1276 33.3878H63.7762ZM60.2078 29.097C60.2078 28.6453 60.3315 28.3798 60.5473 28.1911C60.8047 27.9662 61.4883 27.5938 63.1341 27.5938V23.9451C61.0144 23.9451 59.3227 24.4156 58.1462 25.4439C56.9281 26.5086 56.5592 27.9069 56.5592 29.097H60.2078ZM63.1341 27.5938C64.4022 27.5938 65.6799 27.7695 67.0776 27.9879L67.6408 24.383C66.2363 24.1635 64.7119 23.9451 63.1341 23.9451V27.5938ZM81.4386 32.3151V34.1395H82.9455L83.2301 32.6597L81.4386 32.3151ZM74.1924 32.3151V30.4908H72.368V32.3151H74.1924ZM80.6067 33.147L82.4053 33.4521L82.887 30.6121L80.1137 31.3906L80.6067 33.147ZM79.9718 36.8905L80.2956 38.6859L81.5563 38.4586L81.7705 37.1956L79.9718 36.8905ZM74.3018 30.323L72.4893 30.1158L72.2571 32.1473H74.3018V30.323ZM76.688 30.323V32.1473H78.5124V30.323H76.688ZM81.4386 30.4908H74.1924V34.1395H81.4386V30.4908ZM72.368 32.3151C72.368 32.9658 72.5275 33.6073 72.9047 34.1678C73.2773 34.7213 73.7755 35.067 74.2434 35.2792C75.1036 35.6692 76.0635 35.6938 76.6224 35.6938V32.0451C76.3847 32.0451 76.184 32.0363 76.0159 32.0145C75.8424 31.992 75.765 31.9629 75.7504 31.9562C75.7476 31.955 75.8435 31.9997 75.9315 32.1304C76.0242 32.268 76.0167 32.365 76.0167 32.3151H72.368ZM76.6224 35.6938C78.2216 35.6938 79.874 35.2475 81.0997 34.9035L80.1137 31.3906C78.8437 31.7471 77.6501 32.0451 76.6224 32.0451V35.6938ZM78.8081 32.842L78.1732 36.5855L81.7705 37.1956L82.4053 33.4521L78.8081 32.842ZM79.6481 35.0952C78.3874 35.3225 77.1641 35.4603 75.9437 35.4603V39.1089C77.4379 39.1089 78.8854 38.9402 80.2956 38.6859L79.6481 35.0952ZM75.9437 35.4603C75.0476 35.4603 73.6869 35.4402 72.5702 34.9494C72.0483 34.7201 71.6466 34.4143 71.3677 34.008C71.0945 33.61 70.8502 32.9865 70.8502 31.9649H67.2016C67.2016 33.6031 67.6058 34.9745 68.3595 36.0727C69.1075 37.1626 70.1109 37.8542 71.1023 38.2898C73.0122 39.129 75.1103 39.1089 75.9437 39.1089V35.4603ZM70.8502 31.9649C70.8502 31.2102 71.0137 30.0911 71.6327 29.2094C72.1711 28.4425 73.2316 27.5938 75.6372 27.5938V23.9451C72.1978 23.9451 69.9525 25.2527 68.6466 27.1129C67.4212 28.8582 67.2016 30.8368 67.2016 31.9649H70.8502ZM75.6372 27.5938C77.0711 27.5938 78.1343 27.8778 78.7908 28.3397C79.3418 28.7274 79.7894 29.3609 79.7894 30.6514H83.438C83.438 28.3077 82.5174 26.5003 80.8902 25.3556C79.3685 24.285 77.4434 23.9451 75.6372 23.9451V27.5938ZM79.7894 30.6514C79.7894 31.0524 79.7414 31.4803 79.6471 31.9706L83.2301 32.6597C83.3547 32.0116 83.438 31.3449 83.438 30.6514H79.7894ZM74.3018 32.1473H76.688V28.4986H74.3018V32.1473ZM78.5124 30.323V29.9289H74.8637V30.323H78.5124ZM78.5124 29.9289C78.5124 29.3247 78.3689 28.5611 77.8338 27.9172C77.2537 27.2193 76.4313 26.9224 75.6153 26.9224V30.5711C75.5958 30.5711 75.5063 30.5675 75.3809 30.5139C75.2496 30.4579 75.1251 30.3664 75.0278 30.2495C74.843 30.027 74.8637 29.8545 74.8637 29.9289H78.5124ZM75.6153 26.9224C74.5051 26.9224 73.6615 27.4729 73.1519 28.2134C72.7059 28.8616 72.549 29.5932 72.4893 30.1158L76.1144 30.5301C76.1262 30.4263 76.1435 30.3475 76.1598 30.2952C76.1768 30.2406 76.1834 30.2444 76.1578 30.2817C76.1281 30.3247 76.0564 30.4097 75.9291 30.4804C75.796 30.5542 75.6763 30.5711 75.6153 30.5711V26.9224Z" fill="black" mask="url(#path-1-outside-1_6706_3060)"/>
</svg>
