<svg width="83" height="81" viewBox="0 0 83 81" fill="none" xmlns="http://www.w3.org/2000/svg">
<path d="M41.7589 14.6712C41.0403 14.6712 40.3218 14.6712 39.6032 14.791C25.232 15.8689 13.735 27.6054 12.5374 42.2161H15.0523C16.2499 28.9227 26.5493 18.3838 39.4835 17.306C40.202 17.1862 40.9206 17.1862 41.6391 17.1862C55.6511 17.1862 67.1481 28.2042 68.3457 42.0964H70.8607C69.7828 26.7671 57.0882 14.6712 41.7589 14.6712Z" fill="#A5BDE4"/>
<path d="M68.4654 42.2161H66.669C65.3516 29.7611 54.0942 18.2641 41.8786 18.2641C41.16 18.2641 40.4415 18.2641 39.7229 18.3838V17.306C40.4415 17.1862 41.16 17.1862 41.8786 17.1862C55.7708 17.1862 67.2678 28.2042 68.4654 42.2161Z" fill="#596D90"/>
<path d="M70.9805 42.2161H68.4655C67.2679 28.2042 55.7709 17.306 41.7589 17.306C41.0404 17.306 40.3218 17.306 39.6033 17.4258V14.9108C40.3218 14.791 41.0404 14.791 41.7589 14.791C57.0883 14.6713 69.7829 26.767 70.9805 42.2161Z" fill="#A5BDE4"/>
<path d="M68.5853 44.6114C68.5853 44.9706 68.5853 45.3299 68.5853 45.5695C68.5853 45.6892 68.5853 45.809 68.5853 45.9287V46.0485C68.5853 46.4078 68.5853 46.767 68.4655 47.1263C68.4655 47.4856 68.3458 47.8449 68.3458 48.0844C68.3458 48.2042 68.3458 48.3239 68.3458 48.4437C68.3458 48.5635 68.3458 48.803 68.226 48.9227C68.226 49.282 68.1062 49.6413 68.1062 49.8808C67.9865 50.2401 67.9865 50.5994 67.8667 50.9587C67.8667 51.0784 67.747 51.318 67.747 51.4377V51.5575C67.747 51.797 67.6272 52.0365 67.6272 52.1563V52.2761C67.6272 52.3958 67.5074 52.5156 67.5074 52.6353C67.3877 52.8748 67.3876 53.2341 67.2679 53.4737V53.5934C67.1481 53.8329 67.1481 53.9527 67.0284 54.1922C67.0284 54.3119 66.9086 54.4317 66.9086 54.5515V54.6713C66.7889 54.9108 66.7888 55.0305 66.6691 55.2701C66.5493 55.5096 66.4296 55.7491 66.4296 55.9886C66.3098 56.2281 66.3098 56.3479 66.1901 56.5874C66.0703 56.7072 66.0703 56.8269 65.9506 57.0665C65.8308 57.306 65.711 57.4258 65.5912 57.6653C65.5912 57.785 65.4715 57.9048 65.4715 57.9048C65.3517 58.1443 65.232 58.2641 65.1122 58.5036C64.8727 58.8629 64.7529 59.1024 64.5134 59.4617C64.5134 59.5814 64.3936 59.5814 64.3936 59.7012C64.2739 59.9407 64.1541 60.0605 64.0344 60.3C63.9146 60.5395 63.7949 60.6593 63.5553 60.8988C63.0763 61.6173 62.5972 62.2162 61.9984 62.815C61.7589 63.0545 61.6392 63.294 61.3996 63.4138C61.2799 63.5335 61.1601 63.6533 61.0404 63.773L60.5613 64.2521C60.5613 64.2521 60.5613 64.2521 60.4416 64.3718C60.3218 64.4916 60.202 64.6114 60.0823 64.7311L59.9625 64.8509C59.8428 64.9707 59.8428 64.9706 59.723 65.0904V63.1742H58.5254C63.5553 58.264 66.7889 51.5575 66.7889 44.4916C66.7889 43.6533 66.7888 42.815 66.6691 42.0964H68.4655C68.4655 42.9347 68.5853 43.773 68.5853 44.6114Z" fill="#596D90"/>
<path d="M71.1002 44.6113C71.1002 54.3119 66.5493 63.0545 59.4834 68.5634V65.2102C59.6032 65.0904 59.6032 65.0904 59.7229 64.9706L59.8427 64.8509C59.9625 64.7311 60.0822 64.6113 60.202 64.4916C60.202 64.4916 60.202 64.4916 60.3217 64.3718L60.8008 63.8928C60.9205 63.773 61.0403 63.6533 61.1601 63.5335C61.3996 63.294 61.5194 63.1742 61.7589 62.9347C62.2379 62.3359 62.8367 61.7371 63.3157 61.0185C63.4355 60.779 63.5553 60.6593 63.7948 60.4197C63.9145 60.3 64.0343 60.0605 64.1541 59.8209C64.1541 59.7012 64.2738 59.7012 64.2738 59.5814C64.5133 59.2221 64.6331 58.9826 64.8726 58.6233C64.9924 58.3838 65.1122 58.2641 65.2319 58.0245C65.3517 57.9048 65.3517 57.785 65.3517 57.785C65.4714 57.5455 65.5912 57.4257 65.711 57.1862C65.8307 57.0664 65.8307 56.9467 65.9505 56.7072C66.0703 56.4676 66.19 56.3479 66.19 56.1084C66.3098 55.8688 66.4295 55.6293 66.4295 55.3898C66.5493 55.1503 66.5493 55.0305 66.669 54.791V54.6713C66.669 54.5515 66.7888 54.4317 66.7888 54.312C66.9086 54.0724 66.9086 53.9527 67.0283 53.7131V53.5934C67.1481 53.3539 67.2678 53.1144 67.2678 52.7551C67.2678 52.6353 67.3876 52.5155 67.3876 52.3958V52.276C67.5074 52.0365 67.5074 51.9168 67.5074 51.6772V51.5575C67.5074 51.4377 67.6271 51.1982 67.6271 51.0784C67.7469 50.7192 67.7469 50.3598 67.8666 50.0006C67.9864 49.6413 67.9864 49.4018 67.9864 49.0425C67.9864 48.9227 67.9864 48.6832 68.1062 48.5635C68.1062 48.4437 68.1062 48.3239 68.1062 48.2042C68.1062 47.8449 68.2259 47.4856 68.2259 47.2461C68.2259 46.8868 68.3457 46.5275 68.3457 46.1683V46.0485C68.3457 45.9287 68.3457 45.809 68.3457 45.6892C68.3457 45.3299 68.3457 44.9706 68.3457 44.7311C68.3457 43.8928 68.3457 43.0545 68.2259 42.3359H70.7409C70.9804 42.9347 71.1002 43.773 71.1002 44.6113Z" fill="#A5BDE4"/>
<path d="M59.3636 65.2102V68.5634C55.172 71.797 50.0223 73.9527 44.5133 74.4317C43.5552 74.5515 42.7169 74.5515 41.7588 74.5515C38.5253 74.5515 34.693 73.7131 31.699 72.7551C31.4595 72.6353 31.2199 72.6353 30.8606 72.5156C29.663 72.0365 28.4654 71.4377 27.2678 70.7192V67.7251C27.5073 67.8449 27.7469 68.0844 28.1062 68.2042C28.3457 68.3239 28.7049 68.5635 28.9445 68.6832C29.4235 68.9227 30.0223 69.282 30.5014 69.5216H30.6211C30.7409 69.5216 30.8606 69.6413 30.8606 69.6413C31.1002 69.7611 31.3397 69.8808 31.5792 70.0006C31.699 70.0006 31.699 70.1204 31.8187 70.1204C32.0583 70.2401 32.4175 70.3599 32.657 70.4796C32.7768 70.4796 32.8966 70.5994 33.0163 70.5994C33.3756 70.7191 33.6151 70.8389 33.9744 70.9587C34.3337 71.0784 34.8127 71.1982 35.172 71.318C35.5313 71.4377 35.8906 71.4377 36.2499 71.5575C36.4894 71.5575 36.7289 71.6772 36.8487 71.6772C37.0882 71.6772 37.4475 71.797 37.687 71.797C38.0463 71.9168 38.5253 71.9168 38.8846 71.9168H39.0044C39.3636 71.9168 39.8427 72.0365 40.202 72.0365H40.3217C40.8007 72.0365 41.16 72.0365 41.6391 72.0365C42.5972 72.0365 43.4355 72.0365 44.3936 71.9168C44.8726 71.9168 45.2319 71.797 45.7109 71.797C46.0702 71.6772 46.5492 71.6772 46.9085 71.5575C47.2678 71.4377 47.7469 71.4377 48.1061 71.318C48.4654 71.1982 48.8247 71.0784 49.3037 70.9587C49.3037 70.9587 49.3037 70.9587 49.4235 70.9587C49.7828 70.8389 50.0223 70.7192 50.2618 70.7192C50.3816 70.7192 50.5013 70.5994 50.6211 70.5994C50.8606 70.4796 51.2199 70.3599 51.4594 70.2401C51.5792 70.2401 51.699 70.1204 51.8187 70.1204C52.0582 70.0006 52.2978 69.8808 52.5373 69.761C52.657 69.6413 52.8966 69.6413 53.0163 69.5216C53.2558 69.4018 53.6151 69.282 53.8547 69.0425C54.0942 68.9228 54.3337 68.803 54.5732 68.6832C54.8127 68.5635 54.9325 68.4437 55.172 68.3239C55.4115 68.2042 55.7708 67.9647 56.0103 67.8449C56.2498 67.7252 56.4894 67.4856 56.7289 67.3658C56.8487 67.2461 57.0882 67.1263 57.2079 67.0066C57.4475 66.7671 57.8067 66.5275 58.0463 66.288C58.2858 66.0485 58.6451 65.809 58.8846 65.5694C59.1241 65.4497 59.2439 65.3299 59.3636 65.2102Z" fill="#A5BDE4"/>
<path d="M59.3636 63.294V65.2102C59.2439 65.3299 59.1241 65.4497 58.8846 65.5694C58.6451 65.809 58.2858 66.0485 58.0463 66.288C57.8067 66.5275 57.4475 66.7671 57.2079 67.0066C57.0882 67.1263 56.8487 67.2461 56.7289 67.3658C56.4894 67.4856 56.2498 67.7252 56.0103 67.8449C55.7708 67.9647 55.4115 68.2042 55.172 68.3239C55.0523 68.4437 54.8127 68.5635 54.5732 68.6832C54.3337 68.803 54.0942 68.9228 53.8547 69.0425C53.6151 69.1623 53.2558 69.282 53.0163 69.5216C52.8966 69.6413 52.657 69.6413 52.5373 69.761C52.2978 69.8808 52.0582 70.0006 51.8187 70.1204C51.699 70.1204 51.5792 70.2401 51.4594 70.2401C51.2199 70.3599 50.8606 70.4796 50.6211 70.5994C50.5013 70.5994 50.3816 70.7192 50.2618 70.7192C50.0223 70.8389 49.663 70.9587 49.4235 70.9587C49.4235 70.9587 49.4235 70.9587 49.3037 70.9587C48.9445 71.0784 48.5852 71.1982 48.1061 71.318C47.7469 71.4377 47.2678 71.5575 46.9085 71.5575C46.5492 71.6772 46.0702 71.6772 45.7109 71.797C45.2319 71.9168 44.8726 71.9168 44.3936 71.9168C43.4355 72.0365 42.5972 72.0365 41.6391 72.0365C41.16 72.0365 40.8007 72.0365 40.3217 72.0365H40.202C39.7229 72.0365 39.3636 72.0365 39.0044 71.9168H38.8846C38.5253 71.9168 38.0463 71.797 37.687 71.797C37.4475 71.797 37.0882 71.6772 36.8487 71.6772C36.6091 71.6772 36.3696 71.5575 36.2499 71.5575C35.8906 71.4377 35.5313 71.4377 35.172 71.318C34.8127 71.1982 34.3337 71.0784 33.9744 70.9587C33.6151 70.8389 33.3756 70.7191 33.0163 70.5994C32.8966 70.5994 32.7768 70.4796 32.657 70.4796C32.4175 70.3599 32.0583 70.2401 31.8187 70.1204C31.699 70.1204 31.699 70.1203 31.5792 70.0006C31.3397 69.8808 31.1002 69.7611 30.8606 69.6413C30.7409 69.6413 30.6211 69.5216 30.6211 69.5216H30.5014C30.0223 69.282 29.4235 69.0425 28.9445 68.6832C28.7049 68.5635 28.3457 68.3239 28.1062 68.2042C27.8666 68.0844 27.5073 67.8449 27.2678 67.7251V65.3299C28.7049 66.4078 30.1421 67.2461 31.699 68.0844C34.8127 69.6413 38.2858 70.4796 41.7588 70.4796C42.7169 70.4796 43.5552 70.3599 44.5133 70.2401C49.663 69.5216 54.5732 66.8868 58.5253 63.1742H59.3636V63.294Z" fill="#596D90"/>
<path d="M26.5493 67.1263C26.7888 67.3659 27.0284 67.4856 27.3876 67.7251V70.7191C18.5254 65.5694 12.5374 55.8688 12.5374 44.6113C12.5374 43.773 12.5373 42.9347 12.6571 42.2161H15.1721C15.0523 43.0545 15.0523 43.8928 15.0523 44.6113C15.0523 44.8509 15.0523 45.0904 15.0523 45.4497C15.0523 45.6892 15.0523 45.809 15.0523 46.0485C15.0523 46.1682 15.0523 46.1683 15.0523 46.288V46.4078C15.0523 46.6473 15.0523 46.8868 15.0523 47.1263C15.0523 47.3658 15.0523 47.6054 15.1721 47.8449C15.1721 47.9647 15.1721 47.9647 15.1721 48.0844C15.1721 48.4437 15.2918 48.6832 15.2918 49.0425C15.2918 49.4018 15.4116 49.7611 15.4116 50.1203C15.4116 50.2401 15.4116 50.2401 15.4116 50.3599V50.4796C15.5314 50.8389 15.5314 51.1982 15.6511 51.6772V51.797C15.6511 51.9167 15.7709 52.0365 15.7709 52.1563C15.7709 52.276 15.8906 52.3958 15.8906 52.5155C15.8906 52.6353 16.0104 52.8748 16.0104 52.9946C16.2499 53.7131 16.4894 54.4317 16.729 55.1503C16.8487 55.2701 16.8487 55.5096 16.9685 55.6293C17.0882 55.8688 17.0882 55.9886 17.208 56.2281C17.208 56.2281 17.208 56.2281 17.208 56.3479C17.3278 56.5874 17.4475 56.9467 17.5673 57.1862C17.687 57.4257 17.8068 57.6653 17.9266 58.0245C17.9266 58.0245 17.9266 58.0245 17.9266 58.1443C18.0463 58.5036 18.2858 58.7431 18.4056 59.1024C18.6451 59.4617 18.8847 59.8209 19.1242 60.1802C19.2439 60.4197 19.3637 60.5395 19.4834 60.779C19.6032 61.0185 19.723 61.1383 19.8427 61.3778C20.0823 61.7371 20.3218 61.9766 20.5613 62.3359C20.8008 62.5754 21.0403 62.9347 21.2799 63.1742C21.3996 63.4137 21.6391 63.5335 21.7589 63.773C22.2379 64.2521 22.717 64.7311 23.196 65.3299C23.5553 65.5694 23.7948 65.9287 24.1541 66.1682C24.2739 66.288 24.3936 66.288 24.5134 66.4078C24.7529 66.6473 24.9924 66.767 25.2319 67.0066C26.0703 66.767 26.3098 67.0066 26.5493 67.1263Z" fill="#A5BDE4"/>
<path d="M27.3875 65.3299V67.7251C27.148 67.6054 26.9085 67.3659 26.5492 67.1263C26.3097 66.8868 26.0702 66.7671 25.7109 66.5275C25.4714 66.288 25.2318 66.1683 24.9923 65.9287C24.8726 65.809 24.7528 65.809 24.633 65.6892C24.2738 65.4497 24.0342 65.0904 23.6749 64.8509C23.1959 64.3719 22.7169 63.8928 22.2378 63.294C22.1181 63.1742 21.8785 62.9347 21.7588 62.6952C21.5193 62.4557 21.2797 62.0964 21.0402 61.8569C20.8007 61.4976 20.5612 61.2581 20.3217 60.8988C20.2019 60.779 20.0821 60.5395 19.9624 60.3C19.8426 60.0605 19.7229 59.9407 19.6031 59.7012C19.3636 59.3419 19.124 58.9826 18.8845 58.6233C18.7648 58.3838 18.5253 58.0245 18.4055 57.6653C18.4055 57.6653 18.4055 57.6653 18.4055 57.5455C18.2857 57.306 18.166 57.0664 18.0462 56.7072C17.9264 56.4676 17.8067 56.1084 17.6869 55.8689C17.6869 55.8689 17.6869 55.8689 17.6869 55.7491C17.5672 55.5096 17.5672 55.3898 17.4474 55.1503C17.3276 55.0305 17.3276 54.791 17.2079 54.6713C16.9684 53.9527 16.7288 53.2341 16.4893 52.5155C16.4893 52.3958 16.3696 52.1563 16.3696 52.0365C16.3696 51.9168 16.2498 51.797 16.2498 51.6772C16.2498 51.5575 16.1301 51.4377 16.1301 51.3179V51.1982C16.0103 50.8389 16.0103 50.4796 15.8905 50.0006C15.8905 50.0006 15.8905 50.0006 15.8905 49.8808C15.8905 49.7611 15.8905 49.7611 15.8905 49.6413C15.7708 49.282 15.7708 48.9227 15.7708 48.5635C15.7708 48.2042 15.651 47.9646 15.651 47.6054C15.651 47.4856 15.651 47.4856 15.651 47.3659C15.651 47.1263 15.651 46.8868 15.5313 46.6473C15.5313 46.4078 15.5313 46.1682 15.5313 45.9287V45.809C15.5313 45.6892 15.5313 45.6892 15.5313 45.5695C15.5313 45.3299 15.5313 45.2102 15.5313 44.9707C15.5313 44.7311 15.5313 44.4916 15.5313 44.1323C15.5313 43.294 15.5312 42.4557 15.651 41.7371H17.0881C16.9684 42.5754 16.9684 43.4138 16.9684 44.1323C16.3696 52.6353 20.9205 60.4198 27.3875 65.3299Z" fill="#596D90"/>
<path d="M15.0522 42.2161H16.4894C17.8067 30.4796 28.2259 19.7012 39.6032 18.3838V17.306C26.669 18.3838 16.2499 28.9227 15.0522 42.2161Z" fill="#596D90"/>
<path d="M21.1601 51.3179L0.800781 30.9587L29.0642 26.7671L41.7589 0.299988L54.5732 26.7671L82.7169 30.9587L62.3577 51.3179L67.1481 80.3L41.7589 66.5275L16.3696 80.3L21.1601 51.3179Z" fill="#E7EFFA"/>
<path d="M41.7587 12.0365L51.1 31.4377L71.9384 34.5515L56.8486 49.5215L60.4414 70.8389L41.7587 60.779L23.0761 70.8389L26.6689 49.5215L11.5791 34.5515L32.4174 31.4377L41.7587 12.0365Z" fill="#CBEA94"/>
<path fill-rule="evenodd" clip-rule="evenodd" d="M11.5792 34.5515L0.800781 30.9587L21.1601 51.3179L26.669 49.5215L11.5792 34.5515Z" fill="#30455E"/>
<path fill-rule="evenodd" clip-rule="evenodd" d="M23.0762 70.8389L16.3696 80.3L41.7588 66.5275L67.1481 80.3L60.4415 70.8389L41.7588 60.779L23.0762 70.8389Z" fill="#30455E"/>
<path fill-rule="evenodd" clip-rule="evenodd" d="M82.7169 30.9587L71.9385 34.5515L56.8486 49.5215L62.3576 51.3179L82.7169 30.9587Z" fill="#596D90"/>
<path d="M41.7588 0.299988L54.5732 26.7671L82.7169 30.9587L71.9384 34.5515L51.1001 31.4377L41.7588 12.0365V0.299988Z" fill="#A5BDE4"/>
<path d="M56.8486 49.5215L62.3576 51.3179L67.148 80.3L60.4414 70.8389L56.8486 49.5215Z" fill="#A5BDE4"/>
<path d="M41.7588 45.5695L60.4414 70.8389L41.7588 60.779L23.0762 70.8389L41.7588 45.5695Z" fill="#35AA78"/>
<path d="M71.9384 34.5515L41.7588 45.5695L56.8486 49.5215L71.9384 34.5515Z" fill="#35AA78"/>
<path d="M11.5791 34.5515L41.7587 45.5695L26.6689 49.5215L11.5791 34.5515Z" fill="#35AA78"/>
<path d="M41.7588 12.0365L51.1001 31.4377L71.9384 34.5515L41.7588 45.5695V12.0365Z" fill="#9ED656"/>
<path d="M60.4414 70.8389L41.7588 45.5695L56.8486 49.5215L60.4414 70.8389Z" fill="#9ED656"/>
</svg>
