<svg width="82" height="81" viewBox="0 0 82 81" fill="none" xmlns="http://www.w3.org/2000/svg">
<path d="M41.2308 12.743C40.4934 12.743 39.7561 12.743 39.0188 12.8659C24.2722 13.9719 12.475 26.0149 11.2461 41.0072H13.8267C15.0556 27.3667 25.624 16.5526 38.8959 15.4466C39.6332 15.3237 40.3706 15.3237 41.1079 15.3237C55.4858 15.3237 67.283 26.6293 68.5119 40.8843H71.0925C69.9865 25.1547 57.0833 12.743 41.2308 12.743Z" fill="#DD9726"/>
<path d="M68.6337 40.8843H66.7904C65.4386 28.104 53.8872 16.3068 41.3526 16.3068C40.6153 16.3068 39.878 16.3068 39.1406 16.4296V15.3237C39.878 15.2008 40.6153 15.2008 41.3526 15.2008C55.6076 15.3237 67.4048 26.6293 68.6337 40.8843Z" fill="#82470D"/>
<path d="M71.2142 40.8843H68.6336C67.4047 26.5064 55.6075 15.3237 41.2296 15.3237C40.4923 15.3237 39.7549 15.3237 39.0176 15.4466V12.8659C39.7549 12.743 40.4923 12.743 41.2296 12.743C57.0821 12.743 69.9853 25.1547 71.2142 40.8843Z" fill="#DD9726"/>
<path d="M68.7565 43.465C68.7565 43.8337 68.7565 44.2023 68.7565 44.4481C68.7565 44.571 68.7565 44.6939 68.7565 44.8168V44.9397C68.7565 45.3083 68.7565 45.677 68.6336 46.0456C68.6336 46.4143 68.5107 46.783 68.5107 47.0287C68.5107 47.1516 68.5107 47.2745 68.5107 47.3974C68.5107 47.5203 68.5107 47.7661 68.3878 47.889C68.3878 48.2576 68.265 48.6263 68.265 48.8721C68.1421 49.2407 68.1421 49.6094 68.0192 49.978C68.0192 50.1009 67.8963 50.3467 67.8963 50.4696V50.5925C67.8963 50.8383 67.7734 51.084 67.7734 51.2069V51.3298C67.7734 51.4527 67.6505 51.5756 67.6505 51.6985C67.5276 51.9443 67.5276 52.3129 67.4047 52.5587V52.6816C67.2818 52.9274 67.2818 53.0502 67.1589 53.296C67.1589 53.4189 67.0361 53.5418 67.0361 53.6647V53.7876C66.9132 54.0333 66.9132 54.1562 66.7903 54.402C66.6674 54.6478 66.5445 54.8936 66.5445 55.1393C66.4216 55.3851 66.4216 55.508 66.2988 55.7538C66.1759 55.8767 66.1758 55.9996 66.053 56.2453C65.9301 56.4911 65.8072 56.614 65.6843 56.8598C65.6843 56.9827 65.5614 57.1056 65.5614 57.1056C65.4385 57.3513 65.3157 57.4742 65.1928 57.72C64.947 58.0887 64.8241 58.3344 64.5783 58.7031C64.5783 58.826 64.4554 58.826 64.4554 58.9489C64.3325 59.1947 64.2096 59.3175 64.0867 59.5633C63.9639 59.8091 63.841 59.932 63.5952 60.1778C63.1037 60.9151 62.6121 61.5295 61.9977 62.144C61.7519 62.3897 61.629 62.6355 61.3832 62.7584C61.2603 62.8813 61.1374 63.0042 61.0146 63.1271L60.523 63.6186C60.523 63.6186 60.523 63.6186 60.4001 63.7415C60.2772 63.8644 60.1543 63.9873 60.0315 64.1101L59.9086 64.233C59.7857 64.3559 59.7857 64.3559 59.6628 64.4788V62.5126H58.6797C63.841 57.4742 67.1589 50.5925 67.1589 43.3421C67.1589 42.4819 67.159 41.6217 67.0361 40.8843H68.8794C68.7565 41.7446 68.7565 42.6048 68.7565 43.465Z" fill="#82470D"/>
<path d="M71.3381 43.465C71.3381 53.4189 66.6684 62.3897 59.418 68.0426V64.6017C59.5409 64.4788 59.5409 64.4788 59.6638 64.3559L59.7866 64.233C59.9095 64.1102 60.0324 63.9873 60.1553 63.8644C60.1553 63.8644 60.1553 63.8644 60.2782 63.7415L60.7697 63.25C60.8926 63.1271 61.0155 63.0042 61.1384 62.8813C61.3842 62.6355 61.5071 62.5126 61.7528 62.2668C62.2444 61.6524 62.8588 61.038 63.3504 60.3006C63.4733 60.0549 63.5962 59.932 63.8419 59.6862C63.9648 59.5633 64.0877 59.3175 64.2106 59.0718C64.2106 58.9489 64.3335 58.9489 64.3335 58.826C64.5793 58.4573 64.7021 58.2116 64.9479 57.8429C65.0708 57.5971 65.1937 57.4742 65.3166 57.2285C65.4395 57.1056 65.4395 56.9827 65.4395 56.9827C65.5624 56.7369 65.6853 56.614 65.8082 56.3682C65.931 56.2453 65.931 56.1225 66.0539 55.8767C66.1768 55.6309 66.2997 55.508 66.2997 55.2622C66.4226 55.0165 66.5455 54.7707 66.5455 54.5249C66.6683 54.2791 66.6684 54.1562 66.7912 53.9105V53.7876C66.7912 53.6647 66.9141 53.5418 66.9141 53.4189C67.037 53.1731 67.037 53.0503 67.1599 52.8045V52.6816C67.2828 52.4358 67.4057 52.19 67.4057 51.8214C67.4057 51.6985 67.5286 51.5756 67.5286 51.4527V51.3298C67.6515 51.084 67.6515 50.9611 67.6515 50.7154V50.5925C67.6515 50.4696 67.7743 50.2238 67.7743 50.1009C67.8972 49.7323 68.0201 49.3636 68.0201 48.9949C68.143 48.6263 68.143 48.3805 68.143 48.0119C68.143 47.889 68.143 47.6432 68.2659 47.5203C68.2659 47.3974 68.2659 47.2745 68.2659 47.1516C68.2659 46.783 68.3888 46.4143 68.3888 46.1685C68.3888 45.7999 68.5117 45.4312 68.5117 45.0625V44.9397C68.5117 44.8168 68.5117 44.6939 68.5117 44.571C68.5117 44.2023 68.5117 43.8337 68.5117 43.5879C68.5117 42.7277 68.5117 41.8675 68.3888 41.1301H70.9694C71.3381 41.7446 71.3381 42.6048 71.3381 43.465Z" fill="#DD9726"/>
<path d="M59.4183 64.6017V68.0426C55.1172 71.3606 49.8331 73.5725 44.1802 74.0641C43.1971 74.187 42.3369 74.187 41.3538 74.187C38.0358 74.187 34.1034 73.3268 31.0312 72.3437C30.7854 72.2208 30.5397 72.2208 30.171 72.0979C28.9421 71.6063 27.7133 70.9919 26.4844 70.2545V67.1823C26.7302 67.3052 26.9759 67.551 27.3446 67.6739C27.5903 67.7968 27.959 68.0426 28.2048 68.1655C28.6963 68.4112 29.3108 68.7799 29.8023 69.0257H29.9252C30.0481 69.0257 30.0481 69.1486 30.171 69.1486C30.4168 69.2714 30.6625 69.3944 30.9083 69.5172C31.0312 69.5172 31.0312 69.6401 31.1541 69.6401C31.3999 69.763 31.7686 69.8859 32.0143 70.0088C32.1372 70.0088 32.2601 70.1317 32.383 70.1317C32.7516 70.2546 32.9974 70.3774 33.3661 70.5003C33.7347 70.6232 34.2263 70.7461 34.5949 70.869C34.9636 70.9919 35.3323 70.9919 35.701 71.1148C35.9467 71.1148 36.1925 71.2377 36.3154 71.2377C36.5612 71.2377 36.9298 71.3606 37.1756 71.3606C37.5443 71.4835 38.0358 71.4834 38.4045 71.4834H38.5274C38.896 71.4834 39.3876 71.6063 39.7563 71.6063H39.8791C40.3707 71.6063 40.7394 71.6063 41.2309 71.6063C42.214 71.6063 43.0742 71.6063 44.0573 71.4834C44.5489 71.4834 44.9176 71.3606 45.4091 71.3606C45.7778 71.2377 46.2693 71.2377 46.638 71.1148C47.0066 70.9919 47.4982 70.9919 47.8669 70.869C48.2355 70.7461 48.6042 70.6232 49.0957 70.5003C49.0957 70.5003 49.0958 70.5003 49.2186 70.5003C49.5873 70.3774 49.8331 70.2545 50.0788 70.2545C50.2017 70.2545 50.3246 70.1317 50.4475 70.1317C50.6933 70.0088 51.0619 69.8859 51.3077 69.763C51.4306 69.763 51.5535 69.6401 51.6764 69.6401C51.9222 69.5172 52.1679 69.3943 52.4137 69.2715C52.5366 69.1486 52.7824 69.1486 52.9053 69.0257C53.1511 68.9028 53.5197 68.7799 53.7655 68.5341C54.0112 68.4112 54.257 68.2884 54.5028 68.1655C54.7486 68.0426 54.8715 67.9197 55.1172 67.7968C55.363 67.6739 55.7317 67.4281 55.9775 67.3052C56.2232 67.1824 56.469 66.9366 56.7148 66.8137C56.8377 66.6908 57.0835 66.5679 57.2064 66.445C57.4521 66.1993 57.8208 65.9535 58.0665 65.7077C58.3123 65.4619 58.681 65.2162 58.9268 64.9704C59.0497 64.8475 59.2954 64.7246 59.4183 64.6017Z" fill="#DD9726"/>
<path d="M59.4183 62.5126V64.4788C59.2954 64.6017 59.1726 64.7246 58.9268 64.8475C58.681 65.0933 58.3123 65.339 58.0665 65.5848C57.8208 65.8306 57.4521 66.0764 57.2064 66.3222C57.0835 66.445 56.8377 66.5679 56.7148 66.6908C56.469 66.8137 56.2232 67.0595 55.9775 67.1823C55.7317 67.3052 55.363 67.551 55.1172 67.6739C54.9944 67.7968 54.7486 67.9197 54.5028 68.0426C54.257 68.1655 54.0112 68.2883 53.7655 68.4112C53.5197 68.5341 53.1511 68.657 52.9053 68.9028C52.7824 69.0257 52.5366 69.0257 52.4137 69.1486C52.1679 69.2714 51.9222 69.3944 51.6764 69.5172C51.5535 69.5172 51.4306 69.6401 51.3077 69.6401C51.0619 69.763 50.6933 69.8859 50.4475 70.0088C50.3246 70.0088 50.2017 70.1317 50.0788 70.1317C49.8331 70.2546 49.4644 70.3774 49.2186 70.3774C49.2186 70.3774 49.2186 70.3774 49.0957 70.3774C48.7271 70.5003 48.3584 70.6232 47.8669 70.7461C47.4982 70.869 47.0066 70.9919 46.638 70.9919C46.2693 71.1148 45.7778 71.1148 45.4091 71.2377C44.9176 71.3606 44.5489 71.3606 44.0573 71.3606C43.0742 71.4835 42.214 71.4834 41.2309 71.4834C40.7394 71.4834 40.3707 71.4834 39.8791 71.4834H39.7563C39.2647 71.4834 38.896 71.4835 38.5274 71.3606H38.4045C38.0358 71.3606 37.5443 71.2377 37.1756 71.2377C36.9298 71.2377 36.5612 71.1148 36.3154 71.1148C36.0696 71.1148 35.8239 70.9919 35.701 70.9919C35.3323 70.869 34.9636 70.869 34.5949 70.7461C34.2263 70.6232 33.7347 70.5003 33.3661 70.3774C32.9974 70.2546 32.7516 70.1317 32.383 70.0088C32.2601 70.0088 32.1372 69.8859 32.0143 69.8859C31.7686 69.763 31.3999 69.6401 31.1541 69.5172C31.0312 69.5172 31.0312 69.5172 30.9083 69.3944C30.6625 69.2715 30.4168 69.1486 30.171 69.0257C30.0481 69.0257 29.9252 68.9028 29.9252 68.9028H29.8023C29.3108 68.657 28.6963 68.4112 28.2048 68.0426C27.959 67.9197 27.5903 67.6739 27.3446 67.551C27.0988 67.4281 26.7302 67.1824 26.4844 67.0595V64.6017C27.959 65.7077 29.4337 66.5679 31.0312 67.4281C34.2263 69.0257 37.79 69.8859 41.3538 69.8859C42.3369 69.8859 43.1971 69.763 44.1802 69.6401C49.4644 68.9028 54.5028 66.1992 58.5581 62.3897H59.4183V62.5126Z" fill="#82470D"/>
<path d="M25.624 66.5679C25.8698 66.8137 26.1156 66.9366 26.4842 67.1823V70.2545C17.3905 64.9704 11.2461 55.0165 11.2461 43.465C11.2461 42.6048 11.2461 41.7446 11.369 41.0072H13.9496C13.8268 41.8674 13.8267 42.7277 13.8267 43.465C13.8267 43.7108 13.8267 43.9566 13.8267 44.3252C13.8267 44.571 13.8267 44.6939 13.8267 44.9397C13.8267 45.0625 13.8267 45.0625 13.8267 45.1854V45.3083C13.8267 45.5541 13.8267 45.7999 13.8267 46.0456C13.8267 46.2914 13.8268 46.5372 13.9496 46.783C13.9496 46.9059 13.9496 46.9058 13.9496 47.0287C13.9496 47.3974 14.0725 47.6432 14.0725 48.0119C14.0725 48.3805 14.1954 48.7492 14.1954 49.1178C14.1954 49.2407 14.1954 49.2407 14.1954 49.3636V49.4865C14.3183 49.8552 14.3183 50.2238 14.4412 50.7154V50.8383C14.4412 50.9612 14.5641 51.084 14.5641 51.2069C14.5641 51.3298 14.687 51.4527 14.687 51.5756C14.687 51.6985 14.8099 51.9443 14.8099 52.0671C15.0556 52.8045 15.3014 53.5418 15.5472 54.2791C15.6701 54.402 15.6701 54.6478 15.793 54.7707C15.9158 55.0165 15.9159 55.1394 16.0388 55.3851C16.0388 55.3851 16.0388 55.3851 16.0388 55.508C16.1616 55.7538 16.2845 56.1224 16.4074 56.3682C16.5303 56.614 16.6532 56.8598 16.776 57.2285C16.776 57.2285 16.776 57.2284 16.776 57.3513C16.8989 57.72 17.1447 57.9658 17.2676 58.3344C17.5134 58.7031 17.7592 59.0718 18.0049 59.4404C18.1278 59.6862 18.2507 59.8091 18.3736 60.0549C18.4965 60.3006 18.6194 60.4235 18.7423 60.6693C18.988 61.038 19.2338 61.2837 19.4796 61.6524C19.7254 61.8982 19.9712 62.2668 20.2169 62.5126C20.3398 62.7584 20.5856 62.8813 20.7085 63.1271C21.2 63.6186 21.6916 64.1101 22.1831 64.7246C22.5518 64.9704 22.7976 65.339 23.1662 65.5848C23.2891 65.7077 23.412 65.7077 23.5349 65.8306C23.7807 66.0764 24.0264 66.1993 24.2722 66.445C25.1324 66.1993 25.3782 66.445 25.624 66.5679Z" fill="#DD9726"/>
<path d="M26.4843 64.7246V67.1823C26.2385 67.0595 25.9927 66.8137 25.6241 66.5679C25.3783 66.3221 25.1325 66.1992 24.7638 65.9535C24.5181 65.7077 24.2723 65.5848 24.0265 65.339C23.9036 65.2161 23.7807 65.2162 23.6578 65.0933C23.2892 64.8475 23.0434 64.4788 22.6748 64.233C22.1832 63.7415 21.6916 63.2499 21.2001 62.6355C21.0772 62.5126 20.8314 62.2668 20.7085 62.0211C20.4628 61.7753 20.217 61.4066 19.9712 61.1608C19.7254 60.7922 19.4797 60.5464 19.2339 60.1778C19.111 60.0549 18.9881 59.8091 18.8652 59.5633C18.7423 59.3175 18.6195 59.1946 18.4966 58.9489C18.2508 58.5802 18.005 58.2116 17.7592 57.8429C17.6364 57.5971 17.3906 57.2284 17.2677 56.8598C17.2677 56.8598 17.2677 56.8598 17.2677 56.7369C17.1448 56.4911 17.0219 56.2453 16.899 55.8767C16.7761 55.6309 16.6533 55.2622 16.5304 55.0164C16.5304 55.0164 16.5304 55.0164 16.5304 54.8935C16.4075 54.6478 16.4075 54.5249 16.2846 54.2791C16.1617 54.1562 16.1617 53.9105 16.0388 53.7876C15.793 53.0502 15.5473 52.3129 15.3015 51.5756C15.3015 51.4527 15.1786 51.2069 15.1786 51.0841C15.1786 50.9612 15.0557 50.8383 15.0557 50.7154C15.0557 50.5925 14.9328 50.4696 14.9328 50.3467V50.2238C14.8099 49.8552 14.8099 49.4865 14.687 48.9949C14.687 48.9949 14.687 48.9949 14.687 48.872C14.687 48.7492 14.687 48.7492 14.687 48.6263C14.5642 48.2576 14.5642 47.8889 14.5642 47.5203C14.5642 47.1516 14.4413 46.9058 14.4413 46.5372C14.4413 46.4143 14.4413 46.4143 14.4413 46.2914C14.4413 46.0456 14.4412 45.7999 14.3184 45.5541C14.3184 45.3083 14.3184 45.0625 14.3184 44.8168V44.6939C14.3184 44.571 14.3184 44.571 14.3184 44.4481C14.3184 44.2023 14.3184 44.0794 14.3184 43.8336C14.3184 43.5879 14.3184 43.3421 14.3184 42.9734C14.3184 42.1132 14.3184 41.253 14.4413 40.5157H15.9159C15.793 41.3759 15.793 42.2361 15.793 42.9734C15.1786 51.6985 19.8483 59.6862 26.4843 64.7246Z" fill="#82470D"/>
<path d="M13.9492 40.8843H15.4239C16.7757 28.8413 27.4669 17.7814 39.1412 16.4297V15.3237C25.7465 16.5525 15.0552 27.3667 13.9492 40.8843Z" fill="#82470D"/>
<path d="M30.5409 22.4511L28.8205 26.0149L22.6761 26.8751L22.0616 24.786L20.9557 21.7138L18.375 14.3405L24.7651 18.6416L27.4687 20.3621L30.5409 22.4511Z" fill="#A05F08"/>
<path d="M46.0229 66.9366L45.1627 69.6401L44.0567 72.7123L41.2303 80.7L38.5268 72.7123L37.4208 69.6401L36.5605 66.9366L41.2303 64.4788L46.0229 66.9366Z" fill="#A05F08"/>
<path d="M64.2108 14.3405L61.6302 21.7138L60.5242 24.786L59.9097 26.8751L53.7653 26.0149L52.0449 22.4511L55.1171 20.3621L57.6978 18.6416L64.2108 14.3405Z" fill="#E2A937"/>
<path d="M81.661 30.0702L70.8469 40.6386L67.8976 43.465L61.5074 49.7323L62.9821 58.7031L63.7194 62.6355L66.3001 77.505L52.9053 70.5003L49.3415 68.657L46.0236 66.9366L41.2309 64.4788L36.5612 66.9366L33.2432 68.657L29.6794 70.5003L16.2847 77.505L18.8653 62.6355L19.4798 58.7031L21.0773 49.7323L14.5642 43.465L11.7378 40.6386L0.800781 30.0702L15.916 27.8582L19.9713 27.2438L22.6749 26.8751L28.8192 26.0149L30.5397 22.4511L32.7516 18.0272L34.4721 14.3405L41.2309 0.700012L48.1126 14.3405L49.8331 18.0272L52.0451 22.4511L53.7655 26.0149L59.9099 26.8751L62.6134 27.2438L66.5458 27.8582L81.661 30.0702Z" fill="#FFC83E"/>
<path d="M70.7245 33.7569L62.8596 41.4988L60.7705 43.465L55.9779 48.1347L57.0839 54.6478L57.5755 57.4742L59.5417 68.4112L49.7106 63.25L47.13 61.8982L44.7951 60.6693L41.2314 58.826L37.7905 60.6693L35.4556 61.8982L32.875 63.25L23.0439 68.4112L24.8873 57.4742L25.3788 54.6478L26.4848 48.1347L21.8151 43.465L19.726 41.4988L11.7383 33.7569L22.7982 32.1593L25.7475 31.6677L27.7137 31.422L32.1376 30.8076L33.4894 28.2269L35.087 24.9089L36.3159 22.3283L41.2314 12.2515L46.2698 22.3283L47.4986 24.9089L49.0962 28.2269L50.3251 30.8076L54.8719 31.422L56.8381 31.6677L59.7874 32.1593L70.7245 33.7569Z" fill="#FF334C"/>
<path d="M0.800781 30.0702L11.7378 33.7569L26.4844 48.1347L21.0773 49.7323L0.800781 30.0702Z" fill="#82470D"/>
<path d="M50.3239 30.8076L41.2302 12.743V0.700012L53.7648 26.0149L81.6603 30.0702L70.7233 33.7569L50.3239 30.8076Z" fill="#DD9726"/>
<path d="M55.9785 48.1347L61.5085 49.7323L66.3011 77.505L59.4194 67.9197L55.9785 48.1347Z" fill="#DD9726"/>
<path d="M81.6621 30.0702L70.7251 33.7569L55.9785 48.1347L61.5085 49.7323L81.6621 30.0702Z" fill="#A05F08"/>
<path d="M18.375 14.3405L28.8205 26.0149L30.5409 22.4511L18.375 14.3405Z" fill="#E2A937"/>
<path d="M64.2111 14.3405L53.7656 26.0149L59.91 26.8751L64.2111 14.3405Z" fill="#BC6F13"/>
<path d="M41.2305 64.4788V80.7L46.0231 66.9366L41.2305 64.4788Z" fill="#E2A937"/>
<path d="M59.5398 68.4112L66.2986 77.505L52.9038 70.5003L49.34 68.657L46.0221 66.9366L41.2295 64.4788L36.5597 66.9366L33.2418 68.657L29.678 70.5003L16.2832 77.505L23.042 68.4112L41.2295 58.826L59.5398 68.4112Z" fill="#82470D"/>
<path d="M42.9508 42.2361L59.5407 68.4112L49.7097 63.25L47.129 61.8982L44.7941 60.6693L41.2304 58.826L37.7895 60.6693L35.4547 61.8982L32.874 63.25L23.043 68.4112L42.9508 42.2361Z" fill="#7B182A"/>
<path d="M11.7383 33.7569L42.9518 42.2361L26.4848 48.1347L11.7383 33.7569Z" fill="#7B182A"/>
<path d="M70.7258 33.7569L42.9531 42.2361L55.9793 48.1347L70.7258 33.7569Z" fill="#7B182A"/>
<path d="M42.9509 42.2361L41.2305 12.743L50.3242 30.8075L70.7236 33.7569L42.9509 42.2361Z" fill="#E01747"/>
<path d="M55.9793 48.1347L59.4201 67.9197L42.9531 42.2361L55.9793 48.1347Z" fill="#E01747"/>
</svg>
