<svg width="55" height="81" viewBox="0 0 55 81" fill="none" xmlns="http://www.w3.org/2000/svg">
<path d="M27.7762 0.899994L54.6358 80.9L27.7762 62.4919L0.800781 80.9L27.7762 0.899994Z" fill="#EF7917"/>
<path d="M27.7761 14.0983L46.8788 70.8276L27.7761 57.7452L8.67334 70.8276L27.7761 14.0983Z" fill="#44B7E9"/>
<path d="M27.7761 14.0983L46.8789 70.8276L27.7761 57.7452V14.0983Z" fill="#336EB5"/>
<path d="M27.7761 0.899994V14.0983L46.8789 70.8276L54.6357 80.9L27.7761 0.899994Z" fill="#BF5617"/>
<path d="M27.7761 57.7451V62.4919L54.6357 80.9L46.8789 70.8276L27.7761 57.7451Z" fill="#853F13"/>
<path d="M27.7762 57.7451L8.67345 70.8276L0.800781 80.9L27.7762 62.4919V57.7451Z" fill="#5F2E0F"/>
<path d="M8.67334 70.8276L27.7761 44.6627V57.7452L8.67334 70.8276Z" fill="#27316A"/>
<path d="M27.7761 44.6627L46.8789 70.8276L27.7761 57.7452V44.6627Z" fill="#2D54A1"/>
</svg>
