<svg width="53" height="81" viewBox="0 0 53 81" fill="none" xmlns="http://www.w3.org/2000/svg">
<path d="M1.77381 70.509C3.80366 50.5687 11.9231 25.494 22.0723 8.1806L26.6097 0.419403L31.147 8.1806C41.2962 25.494 49.4156 50.5687 51.4455 70.509L52.4007 80.1806L43.6843 75.6433C43.3261 75.5239 31.744 69.3149 26.6097 66.6881L0.818604 80.3L1.77381 70.509Z" fill="#EF7917"/>
<path d="M26.4902 0.300003L31.0275 8.0612C41.1768 25.3746 49.2962 50.4493 51.326 70.3896L52.2813 80.0612L43.5648 75.5239C43.2066 75.4045 31.6246 69.1955 26.4902 66.5687V0.300003Z" fill="#BF5617"/>
<path d="M26.4902 10.8075C36.1619 27.4045 44.1619 51.8821 46.0724 71.106L26.4902 60.8373L6.9082 71.106C8.93805 51.8821 16.8186 27.4045 26.4902 10.8075Z" fill="#BE9DCA"/>
<path d="M26.4902 60.7179L6.90819 70.9866L0.699219 80.1806L26.4902 66.688V60.7179Z" fill="#5F2E0F"/>
<path d="M26.4902 60.7179L46.0724 70.9866L52.4007 80.1806L26.4902 66.688V60.7179Z" fill="#853F13"/>
<path d="M26.4902 60.7179L26.6097 50.091C26.6097 50.091 13.8336 56.1806 6.9082 70.9866L26.4902 60.7179Z" fill="#4B276D"/>
<path d="M26.4903 10.8075C26.6097 10.8075 44.1619 40.3 46.0724 71.106C46.0724 71.106 39.147 56.6582 26.4903 52.4791C26.6097 52.3597 26.3709 10.8075 26.4903 10.8075Z" fill="#AC86BC"/>
<path d="M26.4902 60.7179V50.2104C26.4902 50.2104 39.147 56.1806 46.0724 70.9866L26.4902 60.7179Z" fill="#7A4896"/>
</svg>
