<svg width="83" height="81" viewBox="0 0 83 81" fill="none" xmlns="http://www.w3.org/2000/svg">
<path d="M41.5763 80.4C30.5909 61.6257 21.6354 33.8828 19.4861 12.2386L41.5763 23.838L63.6664 12.2386C61.5171 33.8828 52.5616 61.6257 41.5763 80.4Z" fill="#E8A51F"/>
<path d="M41.5758 0.399994L54.2328 26.11L82.6515 30.2954L62.1136 50.2654L67.0093 78.6063L41.5758 65.2131L16.2617 78.6063L21.0379 50.2654L0.5 30.2954L28.9187 26.11L41.5758 0.399994Z" fill="#FFC83E"/>
<path d="M41.4572 10.0861L51.4874 30.4149L73.8164 33.6436L57.6965 49.3088L61.3981 71.551L41.4572 61.1474L21.5164 71.551L25.3374 49.3088L9.21753 33.6436L31.5465 30.4149L41.4572 10.0861Z" fill="#E7207C"/>
<path d="M41.4572 10.0861L41.5767 41.6556L9.21753 33.6436L31.5465 30.4149L41.4572 10.0861Z" fill="#FF66CC"/>
<path d="M25.3362 49.3088L41.5755 41.6556L21.5151 71.551L25.3362 49.3088Z" fill="#FF66CC"/>
<path d="M9.21753 33.6436L41.5767 41.6556L25.3374 49.3088L9.21753 33.6436Z" fill="#600F28"/>
<path d="M21.5151 71.551L41.5755 41.6556L61.3969 71.551L41.456 61.1474L21.5151 71.551Z" fill="#600F28"/>
<path d="M73.8159 33.6436L41.5762 41.6556L57.696 49.3088L73.8159 33.6436Z" fill="#600F28"/>
<path d="M41.5749 22.7617L47.4258 34.8395L60.7993 36.8724L51.008 45.9606L53.0379 58.8753L41.6943 52.7767L30.1119 58.8753L32.2612 45.9606L22.8281 36.9919L35.8434 34.8395L41.5749 22.7617Z" fill="#FFC83E"/>
<path d="M41.4554 28.7408L45.3958 36.7528L54.1125 38.0682L47.7839 44.1668L49.3362 52.8963L41.4554 48.8305L33.694 53.3746L35.1269 44.1668L28.7983 38.0682L37.515 36.7528L41.4554 28.7408Z" fill="#F985E8"/>
<path d="M41.5767 41.6556L49.3381 53.3746L41.5767 49.1892L33.6958 53.3746L41.5767 41.6556Z" fill="#E7207C"/>
<path d="M54.1138 38.0681L41.5762 41.6556L47.7852 44.1668L54.1138 38.0681Z" fill="#E7207C"/>
<path d="M28.7983 38.0681L41.5748 41.6556L35.1269 44.5255L28.7983 38.0681Z" fill="#E7207C"/>
<path d="M41.4573 28.7408L41.5767 41.6556L54.1144 38.0682L45.3977 36.7528L41.4573 28.7408Z" fill="#FF66CC"/>
<path d="M49.3376 53.3746L47.7852 44.1668L41.5762 41.6556L49.3376 53.3746Z" fill="#FF66CC"/>
<path d="M41.5762 65.2131V80.2804C41.5762 80.2804 48.2629 68.5614 47.9047 68.0831C47.5465 67.6048 41.5762 65.2131 41.5762 65.2131Z" fill="#82470D"/>
<path d="M21.5146 71.551L16.2607 78.6063L41.5749 65.2131L67.0084 78.6063L61.3963 71.551L41.4554 61.1474L21.5146 71.551Z" fill="#82470D"/>
<path d="M0.5 30.2954L9.21665 33.6436L25.3365 49.3088L21.0379 50.2654L0.5 30.2954Z" fill="#82470D"/>
<path d="M22.8281 36.9919L32.2612 46.0801L35.127 44.5256L28.7984 38.0682L22.8281 36.9919Z" fill="#82470D"/>
<path d="M30.1138 58.8753L41.6962 52.7767L53.0398 58.8753L49.3382 53.3746L41.5768 49.1892L33.696 53.3746L30.1138 58.8753Z" fill="#82470D"/>
<path d="M57.696 49.3088L62.114 50.2654L67.0097 78.6063L61.3976 71.551L57.696 49.3088Z" fill="#DD9726"/>
<path d="M51.0084 46.0801L53.0383 58.8753L49.3368 53.3746L47.7844 44.1668L51.0084 46.0801Z" fill="#DD9726"/>
<path d="M47.4276 34.4807L41.5767 22.7617L41.4573 28.7408L45.3977 36.7528L54.1144 38.0682L60.8011 36.8724L47.4276 34.4807Z" fill="#DD9726"/>
<path d="M41.5767 0.399994L54.2338 26.11L82.6525 30.2954L73.8164 33.6436L51.4874 30.415L41.4573 10.0861L41.5767 0.399994Z" fill="#DD9726"/>
<path d="M82.6519 30.2953L62.114 50.2654L57.696 49.3088L73.8159 33.6436L82.6519 30.2953Z" fill="#A05F08"/>
<path d="M60.7997 36.8723L51.0084 46.0801L47.7844 44.1668L54.113 38.0682L60.7997 36.8723Z" fill="#A05F08"/>
<path d="M63.666 12.2386L54.2329 26.11L61.2779 27.1862C61.2779 27.1862 64.0243 13.1952 63.666 12.2386Z" fill="#A05F08"/>
<path d="M19.4861 12.2386L28.9191 26.11L21.8742 27.1862C21.8742 27.1862 19.8443 18.2176 19.4861 12.2386Z" fill="#82470D"/>
</svg>
