<svg width="71" height="80" viewBox="0 0 71 80" fill="none" xmlns="http://www.w3.org/2000/svg">
<path d="M15.2742 48.284L0.599609 33.1361L23.9132 26.9823L35.8659 0L49.2387 26.9823L70.7772 33.1361L57.0493 48.1657L61.7831 80L36.221 66.5089L10.5405 80L15.2742 48.284Z" fill="#E7EFFA"/>
<path d="M17.0494 70.7692L36.221 60.7101L55.2742 70.7692L61.7831 80L36.221 66.5089L10.5405 80L17.0494 70.7692Z" fill="#30455E"/>
<path d="M35.7476 44.3787L35.8659 0L49.2387 26.9822L70.7772 33.1361L35.7476 44.3787Z" fill="#A5BDE4"/>
<path d="M36.2209 11.9527L45.6884 31.361L61.428 35.7396L51.6055 46.5089L55.2741 70.7692L36.2209 60.7101L17.0493 70.7692L20.7179 46.5089L10.4221 35.858L27.5819 31.361L36.2209 11.9527Z" fill="#A31916"/>
<path d="M15.2742 48.284L20.718 46.5089L10.4222 35.858L0.599609 33.1361L15.2742 48.284Z" fill="#30455E"/>
<path fill-rule="evenodd" clip-rule="evenodd" d="M51.6055 46.5089L57.0492 48.1657L70.7771 33.1361L61.4279 35.7396L51.6055 46.5089Z" fill="#596D90"/>
<path d="M57.0492 48.1657L61.783 80L55.2741 70.7692L51.6055 46.5089L57.0492 48.1657Z" fill="#A5BDE4"/>
<path d="M36.2209 11.9527L35.7475 44.3787L10.4221 35.858L27.5819 31.361L36.2209 11.9527Z" fill="#F49524"/>
<path d="M51.6056 46.5089L55.2742 70.7692L35.7476 44.3787L51.6056 46.5089Z" fill="#E63B11"/>
<path d="M35.7475 44.3787L17.0493 70.7692L20.7179 46.5089L35.7475 44.3787Z" fill="#F49524"/>
<path d="M36.221 11.9527L45.6884 31.361L61.428 35.7396L35.7476 44.3787L36.221 11.9527Z" fill="#E63B11"/>
</svg>
