<svg width="83" height="81" viewBox="0 0 83 81" fill="none" xmlns="http://www.w3.org/2000/svg">
<path d="M24.4724 17.236L28.9616 25.7539L25.7386 26.2144L24.4724 17.236Z" fill="#60770B"/>
<path d="M64.6456 12.4014L59.5808 37.1496L77.4225 53.8403L52.2139 57.754L40.4729 80.2L30.4585 57.0633L5.36499 52.2288L24.3578 36.1137L21.2499 11.3655L42.3146 23.7971L64.6456 12.4014Z" fill="#BDFF05"/>
<path d="M20.4441 49.8115L12.0412 50.9626L5.36499 52.2288L19.4082 55.1065L19.9837 52.3439L20.4441 49.8115Z" fill="#13874A"/>
<path d="M70.1722 52.2288L61.7693 50.387L62.1146 53.1497L62.5751 56.4878L77.4239 53.8403L70.1722 52.2288Z" fill="#13874A"/>
<path d="M42.4301 0.200012L54.5164 26.4446L82.948 31.2791L61.7682 50.8475L66.0272 79.3942L40.8185 65.3511L14.9193 78.128L20.4444 49.8115L0.300537 29.2072L28.9624 25.7539L42.4301 0.200012Z" fill="#CC377E"/>
<path d="M0.300537 29.2072L41.6243 43.0201L42.4301 0.200012L28.9624 25.7539L0.300537 29.2072Z" fill="#FC77A0"/>
<path d="M14.9177 78.128L42.4285 42.0993L66.0257 79.3942L40.3565 65.6964L14.9177 78.128Z" fill="#6735A0"/>
<path d="M41.3923 42.0993L42.4283 0.200012L54.5147 26.4446L82.9463 31.2792L41.3923 42.0993Z" fill="#EA567F"/>
<path d="M82.9483 31.2791L43.2361 40.2575L61.7685 50.8475L82.9483 31.2791Z" fill="#6735A0"/>
<path d="M0.300537 29.2072L20.4444 49.8115L41.6243 43.0201L0.300537 29.2072Z" fill="#953DA5"/>
<path d="M40.3591 65.6964L43.5822 42.4446L66.0283 79.3942L40.3591 65.6964Z" fill="#953DA5"/>
<path d="M20.4429 49.8115L14.9177 78.1281L42.4285 42.0993L20.4429 49.8115Z" fill="#FC77A0"/>
<path d="M42.0837 13.6676L50.0262 30.9338L69.7096 34.2719L55.3211 47.164L58.1988 66.8475L41.5082 57.1784L24.1269 66.0417L27.8104 47.164L13.6521 33.8115L32.9902 30.9338L42.0837 13.6676Z" fill="url(#paint0_radial_6706_3367)"/>
<path d="M41.5091 23.3367L47.1495 34.6173L59.6962 36.459L50.6027 45.3223L52.7898 57.8691L41.5091 51.8835L30.3437 57.8691L32.4157 45.3223L23.4373 36.459L35.984 34.6173L41.5091 23.3367Z" fill="#E2429E"/>
<path d="M30.3435 57.869L41.8543 42.2144L52.7896 57.869L41.5089 51.8835L30.3435 57.869Z" fill="#C43DB1"/>
<path d="M59.695 36.459L41.8533 42.2144L50.6014 45.3223L59.695 36.459Z" fill="#D6304C"/>
<path d="M41.8545 42.2144L23.4373 36.459L32.4157 45.3223L41.8545 42.2144Z" fill="#E03F79"/>
<path d="M41.5091 23.3367L41.8545 42.2144L23.4373 36.459L35.984 34.6173L41.5091 23.3367Z" fill="#F7A226"/>
<path d="M41.8543 42.2144L32.4154 45.3223L30.3435 57.869L41.8543 42.2144Z" fill="#FC6BA2"/>
<path d="M59.695 36.459L41.8533 42.2144L47.1482 34.6173L59.695 36.459Z" fill="#FF7895"/>
<path d="M35.984 34.6173L41.8545 42.2144L23.4373 36.459L35.984 34.6173Z" fill="#FF97B7"/>
<path d="M41.5095 23.3367L41.7398 41.9842L47.1498 34.6173L41.5095 23.3367Z" fill="#ED6445"/>
<path d="M24.4728 17.236L21.2498 11.3655L22.9764 26.4446L25.739 26.2144L28.962 25.7539L24.4728 17.236Z" fill="#13874A"/>
<path d="M60.0405 18.1568L54.5154 26.4446L58.3139 27.0201L61.5369 27.5957L64.6449 12.4014L60.0405 18.1568Z" fill="#13874A"/>
<path d="M46.575 68.5741L40.3591 65.6964V73.4086L40.4743 80.2L46.575 68.5741Z" fill="#13874A"/>
<path d="M42.4311 0.200012L42.0857 13.6676L50.0282 30.9338L54.5174 26.4446L42.4311 0.200012Z" fill="#CC377E"/>
<path d="M28.9624 25.754L32.9912 30.9338L13.6531 33.8115L0.300537 29.2072L28.9624 25.754Z" fill="#FC8C7A"/>
<defs>
<radialGradient id="paint0_radial_6706_3367" cx="0" cy="0" r="1" gradientUnits="userSpaceOnUse" gradientTransform="translate(40.0417 43.1654) scale(35.5276 35.5276)">
<stop stop-color="#EDD98A"/>
<stop offset="0.0629784" stop-color="#F5CA59"/>
<stop offset="0.1248" stop-color="#FCBD2F"/>
<stop offset="0.1564" stop-color="#FFB81F"/>
<stop offset="0.2301" stop-color="#F89641"/>
<stop offset="0.2933" stop-color="#F27561"/>
<stop offset="0.405" stop-color="#EC567F"/>
<stop offset="0.5905" stop-color="#DB00D3"/>
<stop offset="0.8017" stop-color="#BE00D1"/>
<stop offset="1" stop-color="#362A67"/>
</radialGradient>
</defs>
</svg>
