<svg width="38" height="81" viewBox="0 0 38 81" fill="none" xmlns="http://www.w3.org/2000/svg">
<path d="M0.900391 43.4935L18.9688 0.699997L37.6314 43.3746L19.0876 80.7L0.900391 43.4935Z" fill="#EF7917"/>
<path d="M18.9688 0.699997L19.0876 12.3493L32.1634 43.2557L37.6314 43.3746L18.9688 0.699997Z" fill="#BF5617"/>
<path d="M19.0877 12.3493L32.2824 42.4236L19.0877 69.2884L6.01196 42.4236L19.0877 12.3493Z" fill="#A7C42D"/>
<path d="M19.0877 40.284L6.01196 42.4236L19.0877 69.2884V40.284L32.2824 42.4236L19.0877 12.3493V40.284Z" fill="#41561A"/>
<path d="M0.900391 43.4935L6.01185 42.4236L19.0876 69.2884V80.7L0.900391 43.4935Z" fill="#5F2E0F"/>
<path fill-rule="evenodd" clip-rule="evenodd" d="M32.2823 42.4236L19.0876 69.2884V80.7L37.6314 43.3746L32.2823 42.4236Z" fill="#853F13"/>
<path d="M32.2823 42.4236L19.0876 69.2884V40.284L32.2823 42.4236Z" fill="#51752C"/>
<path d="M19.0876 40.284L32.2823 42.4236L19.0876 12.3493V40.284Z" fill="#6B9136"/>
</svg>
