<svg width="83" height="81" viewBox="0 0 83 81" fill="none" xmlns="http://www.w3.org/2000/svg">
<path d="M31.7036 58.1712L11.4338 54.4531L24.8671 37.0618L20.5492 12.4741L42.738 23.9883L64.8069 12.3542L59.8894 38.1413L72.6029 54.4531L53.8924 58.0513L42.858 80.6L31.7036 58.1712Z" fill="#FFC83E"/>
<path d="M41.6596 65.6075L16.2324 79.0408L21.03 50.735L0.400391 30.585L28.946 26.3871L41.6596 0.600006L54.4931 26.3871L82.9187 30.585L62.2892 50.735L67.2067 79.0408L41.6596 65.6075Z" fill="#FFC83E"/>
<path d="M41.6586 7.07675L52.573 29.0258L76.8008 32.624L59.1697 49.6555L63.3676 73.7634L41.6586 62.3691L20.0695 73.7634L24.1474 49.6555L6.63623 32.624L30.864 29.0258L41.6586 7.07675Z" fill="#85CBCC"/>
<path d="M6.63623 32.624L24.1474 49.6555L41.6586 43.6585L6.63623 32.624Z" fill="#0062A2"/>
<path d="M76.8021 32.624L41.6599 43.6585L59.171 49.6555L76.8021 32.624Z" fill="#0062A2"/>
<path d="M20.071 73.7634L41.6601 43.6584L63.3691 73.7634L41.6601 62.3691L20.071 73.7634Z" fill="#0062A2"/>
<path d="M41.8998 44.0183L76.8021 32.624L52.5744 29.0258L41.6599 7.07675L41.8998 44.0183Z" fill="#2FADC4"/>
<path d="M59.1702 49.6555L63.368 73.7634L41.8989 44.0183L59.1702 49.6555Z" fill="#2FADC4"/>
<path d="M41.6591 56.732L26.1869 65.2477L28.8256 47.4966L16.1121 35.5026L33.7431 32.3841L41.6591 16.3122L49.5751 32.3841L67.3261 35.5026L54.4927 47.4966L57.4912 65.7275L41.6591 56.732Z" fill="#FFC83E"/>
<path d="M41.78 23.2686L47.777 35.3826L61.57 37.4216L51.4952 46.8968L53.894 60.2102L41.78 53.9733L29.7861 60.4501L32.065 46.8968L21.8701 37.3016L35.7831 35.3826L41.78 23.2686Z" fill="#FFC83E"/>
<path d="M41.8996 44.0183L53.8935 60.2102L41.8996 53.9733L29.7856 60.4501L41.8996 44.0183Z" fill="#A05F08"/>
<path d="M61.5695 37.4216L41.7795 43.8984L51.4947 46.7769L61.5695 37.4216Z" fill="#A05F08"/>
<path d="M21.8701 37.3017L41.78 44.0183L32.065 46.8969L21.8701 37.3017Z" fill="#A05F08"/>
<path d="M41.7795 44.0183L61.5695 37.4216L47.7765 35.3826L41.7795 23.2686V44.0183Z" fill="#DD9726"/>
<path d="M53.8929 60.2102L51.4941 46.7769L41.8989 44.0183L53.8929 60.2102Z" fill="#DD9726"/>
<path d="M67.3261 35.5026L61.569 37.4216L51.4941 46.7769L54.4926 48.0963L67.3261 35.5026Z" fill="#A05F08"/>
<path d="M76.8018 32.624L82.9186 30.585L62.2891 50.735L59.1707 49.6555L76.8018 32.624Z" fill="#A05F08"/>
<path d="M16.1121 35.5026L28.8256 48.0963L32.064 46.8969L21.8691 37.3017L16.1121 35.5026Z" fill="#A05F08"/>
<path d="M0.400391 30.585L21.03 50.7349L24.1484 49.6555L6.63725 32.624L0.400391 30.585Z" fill="#A05F08"/>
<path d="M29.7854 60.4501L26.1873 65.2477L41.6595 56.7319L57.4915 65.7274L53.5334 59.8503L41.8994 53.9733L29.7854 60.4501Z" fill="#A05F08"/>
<path d="M20.0695 73.7634L16.2314 79.0408L41.6586 65.6075L67.2057 79.0408L63.3676 73.7634L41.6586 62.3691L20.0695 73.7634Z" fill="#A05F08"/>
<path d="M59.1707 49.6555L63.3685 73.7634L67.2066 79.0408L62.2891 50.7349L59.1707 49.6555Z" fill="#DD9726"/>
<path d="M54.6125 48.2162L57.4911 65.7275L53.8929 60.2102L51.4941 46.7769L54.6125 48.2162Z" fill="#DD9726"/>
<path d="M41.6599 16.3122L49.5759 32.3841L67.3269 35.5026L61.5698 37.4216L47.7768 35.3826L41.7798 23.2687L41.6599 16.3122Z" fill="#DD9726"/>
<path d="M41.6599 0.600006L54.4934 26.3871L82.919 30.585L76.8021 32.624L52.5744 29.0258L41.6599 7.07676V0.600006Z" fill="#DD9726"/>
<path d="M21.029 50.735L11.4338 54.4531L20.0695 56.4921L20.5492 53.6135L21.029 50.735Z" fill="#A05F08"/>
<path d="M62.2886 50.735L72.6033 54.4531L63.368 56.8519L62.8883 53.9733L62.2886 50.735Z" fill="#A05F08"/>
<path d="M66.4865 46.657L62.2886 50.7349L72.6033 54.4531L66.4865 46.657Z" fill="#DD9726"/>
<path d="M64.8074 12.3542L54.4927 26.3871L59.4102 27.2267L62.2887 27.5865L64.8074 12.3542Z" fill="#A05F08"/>
<path d="M20.5513 12.4741L29.6667 26.3871L25.9485 26.8669L23.07 27.3467L20.5513 12.4741Z" fill="#A05F08"/>
<path d="M39.2617 66.9269L41.6605 65.6075L42.8599 80.6L36.7429 68.2462L39.2617 66.9269Z" fill="#A05F08"/>
<path d="M42.8593 80.6L48.3765 69.2057L41.6599 65.6075L42.8593 80.6Z" fill="#DD9726"/>
<path d="M41.8995 50.615L44.898 44.3781L41.7795 37.3017L38.781 44.4981L41.8995 50.615Z" fill="#85CBCC"/>
<path d="M38.781 44.498L41.8995 43.5385V50.615L38.781 44.498Z" fill="#0062A2"/>
<path d="M44.8974 44.3781L41.8989 43.5385V50.615L44.8974 44.3781Z" fill="#1C97A0"/>
<path d="M44.898 44.3781L41.8995 43.5386L41.7795 37.3017L44.898 44.3781Z" fill="#2FADC4"/>
</svg>
